  0
SECTION
  2
HEADER
  9
$ACADVER
  1
AC1009
  9
$FILLMODE
 70
0
  9
$EXTMIN
 10
-12.6000
 20
-46.1000
 30
0.0000
  9
$EXTMAX
 10
57.6000
 20
35.6000
 30
0.0000
  0
ENDSEC
  0
SECTION
  2
TABLES
  0
TABLE
  2
LTYPE
 70
1
  0
LTYPE
  2
CONTINUOUS
 70
64
  3
Solid line
 72
65
 73
0
 40
0
  0
ENDTAB
  0
TABLE
  2
LAYER
 70
255
  0
LAYER
  2
1
 70
64
 62
22
  6
CONTINUOUS
  0
LAYER
  2
16
 70
64
 62
175
  6
CONTINUOUS
  0
LAYER
  2
17
 70
64
 62
82
  6
CONTINUOUS
  0
LAYER
  2
18
 70
64
 62
82
  6
CONTINUOUS
  0
LAYER
  2
19
 70
64
 62
53
  6
CONTINUOUS
  0
LAYER
  2
20
 70
64
 62
7
  6
CONTINUOUS
  0
LAYER
  2
21
 70
64
 62
253
  6
CONTINUOUS
  0
LAYER
  2
23
 70
64
 62
7
  6
CONTINUOUS
  0
LAYER
  2
25
 70
64
 62
253
  6
CONTINUOUS
  0
LAYER
  2
27
 70
64
 62
253
  6
CONTINUOUS
  0
LAYER
  2
45
 70
64
 62
253
  6
CONTINUOUS
  0
LAYER
  2
51
 70
64
 62
53
  6
CONTINUOUS
  0
ENDTAB
  0
ENDSEC
  0
SECTION
  2
BLOCKS
  0
BLOCK
  8
0
  2
RECT
 70
64
 10
0.0000
 20
0.0000
 30
0.0000
  3
RECT
  0
SOLID
  8
0
 10
-0.5000
 20
-0.5000
 30
0.0000
 11
0.5000
 21
-0.5000
 31
0.0000
 12
-0.5000
 22
0.5000
 32
0.0000
 13
0.5000
 23
0.5000
 33
0.0000
  0
ENDBLK
  8
0
  0
BLOCK
  8
0
  2
PIE
 70
64
 10
0.0000
 20
0.0000
 30
0.0000
  3
PIE
  0
CIRCLE
  8
0
 10
0.0000
 20
0.0000
 30
0.0000
 40
0.5000
  0
ENDBLK
  8
0
  0
BLOCK
  8
0
  2
OCTAGONP
 70
64
 10
0.0000
 20
0.0000
 30
0.0000
  3
OCTAGONP
  0
POLYLINE
  8
0
 66
1
 10
0.0000
 20
0.0000
 30
0.0000
 40
0.0000
 41
0.0000
 70
1
  0
VERTEX
  8
0
 10
-0.5000
 20
-0.2071
 30
0.0000
  0
VERTEX
  8
0
 10
-0.5000
 20
0.2071
 30
0.0000
  0
VERTEX
  8
0
 10
-0.2071
 20
0.5000
 30
0.0000
  0
VERTEX
  8
0
 10
0.2071
 20
0.5000
 30
0.0000
  0
VERTEX
  8
0
 10
0.5000
 20
0.2071
 30
0.0000
  0
VERTEX
  8
0
 10
0.5000
 20
-0.2071
 30
0.0000
  0
VERTEX
  8
0
 10
0.2071
 20
-0.5000
 30
0.0000
  0
VERTEX
  8
0
 10
-0.2071
 20
-0.5000
 30
0.0000
  0
SEQEND
  8
0
  0
ENDBLK
  8
0
  0
BLOCK
  8
0
  2
SQUAREP
 70
64
 10
0.0000
 20
0.0000
 30
0.0000
  3
SQUAREP
  0
SOLID
  8
0
 10
-0.5000
 20
-0.5000
 30
0.0000
 11
0.5000
 21
-0.5000
 31
0.0000
 12
-0.5000
 22
0.5000
 32
0.0000
 13
0.5000
 23
0.5000
 33
0.0000
  0
ENDBLK
  8
0
  0
BLOCK
  8
0
  2
ROUNDP
 70
64
 10
0.0000
 20
0.0000
 30
0.0000
  3
ROUNDP
  0
CIRCLE
  8
0
 10
0.0000
 20
0.0000
 30
0.0000
 40
0.5000
  0
ENDBLK
  8
0
  0
BLOCK
  8
0
  2
ANNULUSP
 70
64
 10
0.0000
 20
0.0000
 30
0.0000
  3
ANNULUSP
  0
CIRCLE
  8
0
 10
0.0000
 20
0.0000
 30
0.0000
 40
0.5000
  0
ENDBLK
  8
0
  0
BLOCK
  8
0
  2
THERMALP
 70
64
 10
0.0000
 20
0.0000
 30
0.0000
  3
THERMALP
  0
LINE
  8
0
 10
-0.2379
 20
0.4500
 30
0.0000
 11
0.2379
 21
0.4500
 31
0.0000
  0
LINE
  8
0
 10
0.4500
 20
0.2379
 30
0.0000
 11
0.4500
 21
-0.2379
 31
0.0000
  0
LINE
  8
0
 10
0.2379
 20
-0.4500
 30
0.0000
 11
-0.2379
 21
-0.4500
 31
0.0000
  0
LINE
  8
0
 10
-0.4500
 20
-0.2379
 30
0.0000
 11
-0.4500
 21
0.2379
 31
0.0000
  0
ENDBLK
  8
0
  0
BLOCK
  8
0
  2
OCTAGONV
 70
64
 10
0.0000
 20
0.0000
 30
0.0000
  3
OCTAGONV
  0
POLYLINE
  8
0
 66
1
 10
0.0000
 20
0.0000
 30
0.0000
 40
0.0000
 41
0.0000
 70
1
  0
VERTEX
  8
0
 10
-0.5000
 20
-0.2071
 30
0.0000
  0
VERTEX
  8
0
 10
-0.5000
 20
0.2071
 30
0.0000
  0
VERTEX
  8
0
 10
-0.2071
 20
0.5000
 30
0.0000
  0
VERTEX
  8
0
 10
0.2071
 20
0.5000
 30
0.0000
  0
VERTEX
  8
0
 10
0.5000
 20
0.2071
 30
0.0000
  0
VERTEX
  8
0
 10
0.5000
 20
-0.2071
 30
0.0000
  0
VERTEX
  8
0
 10
0.2071
 20
-0.5000
 30
0.0000
  0
VERTEX
  8
0
 10
-0.2071
 20
-0.5000
 30
0.0000
  0
SEQEND
  8
0
  0
ENDBLK
  8
0
  0
BLOCK
  8
0
  2
SQUAREV
 70
64
 10
0.0000
 20
0.0000
 30
0.0000
  3
SQUAREV
  0
SOLID
  8
0
 10
-0.5000
 20
-0.5000
 30
0.0000
 11
0.5000
 21
-0.5000
 31
0.0000
 12
-0.5000
 22
0.5000
 32
0.0000
 13
0.5000
 23
0.5000
 33
0.0000
  0
ENDBLK
  8
0
  0
BLOCK
  8
0
  2
ROUNDV
 70
64
 10
0.0000
 20
0.0000
 30
0.0000
  3
ROUNDV
  0
CIRCLE
  8
0
 10
0.0000
 20
0.0000
 30
0.0000
 40
0.5000
  0
ENDBLK
  8
0
  0
BLOCK
  8
0
  2
ANNULUSV
 70
64
 10
0.0000
 20
0.0000
 30
0.0000
  3
ANNULUSV
  0
CIRCLE
  8
0
 10
0.0000
 20
0.0000
 30
0.0000
 40
0.5000
  0
ENDBLK
  8
0
  0
BLOCK
  8
0
  2
THERMALV
 70
64
 10
0.0000
 20
0.0000
 30
0.0000
  3
THERMALV
  0
LINE
  8
0
 10
-0.2379
 20
0.4500
 30
0.0000
 11
0.2379
 21
0.4500
 31
0.0000
  0
LINE
  8
0
 10
0.4500
 20
0.2379
 30
0.0000
 11
0.4500
 21
-0.2379
 31
0.0000
  0
LINE
  8
0
 10
0.2379
 20
-0.4500
 30
0.0000
 11
-0.2379
 21
-0.4500
 31
0.0000
  0
LINE
  8
0
 10
-0.4500
 20
-0.2379
 30
0.0000
 11
-0.4500
 21
0.2379
 31
0.0000
  0
ENDBLK
  8
0
  0
BLOCK
  8
0
  2
OFFSETP100
 70
64
 10
0.0000
 20
0.0000
 30
0.0000
  3
OFFSETP100
  0
POLYLINE
  8
0
 66
1
 10
0.0000
 20
0.0000
 30
0.0000
 40
0.0000
 41
0.0000
 70
1
  0
VERTEX
  8
0
 10
0.0000
 20
-0.5000
 30
0.0000
  0
VERTEX
  8
0
 10
1.0000
 20
-0.5000
 30
0.0000
 42
1.0000
  0
VERTEX
  8
0
 10
1.0000
 20
0.5000
 30
0.0000
  0
VERTEX
  8
0
 10
0.0000
 20
0.5000
 30
0.0000
 42
1.0000
  0
SEQEND
  8
0
  0
ENDBLK
  8
0
  0
ENDSEC
  0
SECTION
  2
ENTITIES
  0
LINE
  8
51
 10
-12.5000
 20
-46.0000
 30
0.0000
 11
57.5000
 21
-46.0000
 31
0.0000
  0
LINE
  8
51
 10
57.5000
 20
-46.0000
 30
0.0000
 11
57.5000
 21
24.0000
 31
0.0000
  0
LINE
  8
51
 10
57.5000
 20
24.0000
 30
0.0000
 11
-12.5000
 21
24.0000
 31
0.0000
  0
LINE
  8
51
 10
-12.5000
 20
24.0000
 30
0.0000
 11
-12.5000
 21
-46.0000
 31
0.0000
  0
LINE
  8
25
 10
27.2000
 20
11.9000
 30
0.0000
 11
20.2000
 21
11.9000
 31
0.0000
  0
LINE
  8
25
 10
20.2000
 20
11.9000
 30
0.0000
 11
22.2000
 21
13.9000
 31
0.0000
  0
LINE
  8
25
 10
20.2000
 20
11.9000
 30
0.0000
 11
22.2000
 21
9.9000
 31
0.0000
  0
LINE
  8
21
 10
28.5000
 20
13.1000
 30
0.0000
 11
27.7000
 21
13.1000
 31
0.0000
  0
LINE
  8
21
 10
27.7000
 20
13.1000
 30
0.0000
 11
27.7000
 21
10.7000
 31
0.0000
  0
LINE
  8
21
 10
27.7000
 20
10.7000
 30
0.0000
 11
28.5000
 21
10.7000
 31
0.0000
  0
LINE
  8
20
 10
35.0000
 20
0.0000
 30
0.0000
 11
0.0000
 21
0.0000
 31
0.0000
  0
LINE
  8
20
 10
0.0000
 20
0.0000
 30
0.0000
 11
0.0000
 21
35.0000
 31
0.0000
  0
LINE
  8
20
 10
0.0000
 20
35.0000
 30
0.0000
 11
35.0000
 21
35.0000
 31
0.0000
  0
LINE
  8
20
 10
35.0000
 20
35.0000
 30
0.0000
 11
35.0000
 21
0.0000
 31
0.0000
  0
LINE
  8
21
 10
1.0000
 20
25.5000
 30
0.0000
 11
34.0000
 21
25.5000
 31
0.0000
  0
LINE
  8
21
 10
34.0000
 20
25.5000
 30
0.0000
 11
34.0000
 21
34.6000
 31
0.0000
  0
LINE
  8
21
 10
34.0000
 20
34.6000
 30
0.0000
 11
1.0000
 21
34.6000
 31
0.0000
  0
LINE
  8
21
 10
1.0000
 20
34.6000
 30
0.0000
 11
1.0000
 21
25.5000
 31
0.0000
  0
LINE
  8
21
 10
17.5000
 20
34.5000
 30
0.0000
 11
17.5000
 21
33.0000
 31
0.0000
  0
LINE
  8
21
 10
17.5000
 20
33.0000
 30
0.0000
 11
20.0000
 21
33.0000
 31
0.0000
  0
LINE
  8
21
 10
20.0000
 20
33.0000
 30
0.0000
 11
20.0000
 21
34.5000
 31
0.0000
  0
LINE
  8
21
 10
17.5000
 20
33.0000
 30
0.0000
 11
15.0000
 21
33.0000
 31
0.0000
  0
LINE
  8
21
 10
15.0000
 20
33.0000
 30
0.0000
 11
15.0000
 21
34.5000
 31
0.0000
  0
LINE
  8
25
 10
34.1390
 20
9.8381
 30
0.0000
 11
34.2619
 21
9.9610
 31
0.0000
  0
LINE
  8
25
 10
34.2619
 20
9.9610
 30
0.0000
 11
34.2619
 21
10.0838
 31
0.0000
  0
LINE
  8
25
 10
34.2619
 20
10.0838
 30
0.0000
 11
34.1390
 21
10.2067
 31
0.0000
  0
LINE
  8
25
 10
34.1390
 20
10.2067
 30
0.0000
 11
33.5247
 21
10.2067
 31
0.0000
  0
LINE
  8
25
 10
33.5247
 20
10.0838
 30
0.0000
 11
33.5247
 21
10.3296
 31
0.0000
  0
LINE
  8
25
 10
34.2619
 20
10.8323
 30
0.0000
 11
33.5247
 21
10.8323
 31
0.0000
  0
LINE
  8
25
 10
33.5247
 20
10.5865
 30
0.0000
 11
33.5247
 21
11.0780
 31
0.0000
  0
LINE
  8
25
 10
34.2619
 20
11.3349
 30
0.0000
 11
33.7704
 21
11.3349
 31
0.0000
  0
LINE
  8
25
 10
33.7704
 20
11.3349
 30
0.0000
 11
33.5247
 21
11.5807
 31
0.0000
  0
LINE
  8
25
 10
33.5247
 20
11.5807
 30
0.0000
 11
33.7704
 21
11.8264
 31
0.0000
  0
LINE
  8
25
 10
33.7704
 20
11.8264
 30
0.0000
 11
34.2619
 21
11.8264
 31
0.0000
  0
LINE
  8
25
 10
33.8933
 20
11.3349
 30
0.0000
 11
33.8933
 21
11.8264
 31
0.0000
  0
LINE
  8
25
 10
33.6475
 20
12.5748
 30
0.0000
 11
33.5247
 21
12.4520
 31
0.0000
  0
LINE
  8
25
 10
33.5247
 20
12.4520
 30
0.0000
 11
33.5247
 21
12.2062
 31
0.0000
  0
LINE
  8
25
 10
33.5247
 20
12.2062
 30
0.0000
 11
33.6475
 21
12.0833
 31
0.0000
  0
LINE
  8
25
 10
33.6475
 20
12.0833
 30
0.0000
 11
34.1390
 21
12.0833
 31
0.0000
  0
LINE
  8
25
 10
34.1390
 20
12.0833
 30
0.0000
 11
34.2619
 21
12.2062
 31
0.0000
  0
LINE
  8
25
 10
34.2619
 20
12.2062
 30
0.0000
 11
34.2619
 21
12.4520
 31
0.0000
  0
LINE
  8
25
 10
34.2619
 20
12.4520
 30
0.0000
 11
34.1390
 21
12.5748
 31
0.0000
  0
LINE
  8
25
 10
34.1390
 20
12.5748
 30
0.0000
 11
33.8933
 21
12.5748
 31
0.0000
  0
LINE
  8
25
 10
33.8933
 20
12.5748
 30
0.0000
 11
33.8933
 21
12.3291
 31
0.0000
  0
LINE
  8
25
 10
33.7704
 20
12.8318
 30
0.0000
 11
33.5247
 21
13.0775
 31
0.0000
  0
LINE
  8
25
 10
33.5247
 20
13.0775
 30
0.0000
 11
34.2619
 21
13.0775
 31
0.0000
  0
LINE
  8
25
 10
34.2619
 20
12.8318
 30
0.0000
 11
34.2619
 21
13.3232
 31
0.0000
  0
LINE
  8
25
 10
34.1390
 20
13.5802
 30
0.0000
 11
33.6475
 21
13.5802
 31
0.0000
  0
LINE
  8
25
 10
33.6475
 20
13.5802
 30
0.0000
 11
33.5247
 21
13.7030
 31
0.0000
  0
LINE
  8
25
 10
33.5247
 20
13.7030
 30
0.0000
 11
33.5247
 21
13.9488
 31
0.0000
  0
LINE
  8
25
 10
33.5247
 20
13.9488
 30
0.0000
 11
33.6475
 21
14.0717
 31
0.0000
  0
LINE
  8
25
 10
33.6475
 20
14.0717
 30
0.0000
 11
34.1390
 21
14.0717
 31
0.0000
  0
LINE
  8
25
 10
34.1390
 20
14.0717
 30
0.0000
 11
34.2619
 21
13.9488
 31
0.0000
  0
LINE
  8
25
 10
34.2619
 20
13.9488
 30
0.0000
 11
34.2619
 21
13.7030
 31
0.0000
  0
LINE
  8
25
 10
34.2619
 20
13.7030
 30
0.0000
 11
34.1390
 21
13.5802
 31
0.0000
  0
LINE
  8
25
 10
34.1390
 20
13.5802
 30
0.0000
 11
33.6475
 21
14.0717
 31
0.0000
  0
LINE
  8
25
 10
12.0889
 20
23.7225
 30
0.0000
 11
12.0889
 21
24.5529
 31
0.0000
  0
LINE
  8
25
 10
12.0889
 20
24.5529
 30
0.0000
 11
12.5041
 21
24.9682
 31
0.0000
  0
LINE
  8
25
 10
12.5041
 20
24.9682
 30
0.0000
 11
12.9193
 21
24.5529
 31
0.0000
  0
LINE
  8
25
 10
12.9193
 20
24.5529
 30
0.0000
 11
12.9193
 21
23.7225
 31
0.0000
  0
LINE
  8
25
 10
12.0889
 20
24.3453
 30
0.0000
 11
12.9193
 21
24.3453
 31
0.0000
  0
LINE
  8
25
 10
13.3986
 20
23.7225
 30
0.0000
 11
13.3986
 21
24.5529
 31
0.0000
  0
LINE
  8
25
 10
13.3986
 20
24.1377
 30
0.0000
 11
13.8138
 21
24.5529
 31
0.0000
  0
LINE
  8
25
 10
13.8138
 20
24.5529
 30
0.0000
 11
14.0215
 21
24.5529
 31
0.0000
  0
LINE
  8
25
 10
14.4901
 20
24.9682
 30
0.0000
 11
14.4901
 21
23.7225
 31
0.0000
  0
LINE
  8
25
 10
14.4901
 20
23.7225
 30
0.0000
 11
15.1129
 21
23.7225
 31
0.0000
  0
LINE
  8
25
 10
15.1129
 20
23.7225
 30
0.0000
 11
15.3205
 21
23.9301
 31
0.0000
  0
LINE
  8
25
 10
15.3205
 20
23.9301
 30
0.0000
 11
15.3205
 21
24.3453
 31
0.0000
  0
LINE
  8
25
 10
15.3205
 20
24.3453
 30
0.0000
 11
15.1129
 21
24.5529
 31
0.0000
  0
LINE
  8
25
 10
15.1129
 20
24.5529
 30
0.0000
 11
14.4901
 21
24.5529
 31
0.0000
  0
LINE
  8
25
 10
16.0074
 20
23.7225
 30
0.0000
 11
16.4226
 21
23.7225
 31
0.0000
  0
LINE
  8
25
 10
16.4226
 20
23.7225
 30
0.0000
 11
16.6302
 21
23.9301
 31
0.0000
  0
LINE
  8
25
 10
16.6302
 20
23.9301
 30
0.0000
 11
16.6302
 21
24.3453
 31
0.0000
  0
LINE
  8
25
 10
16.6302
 20
24.3453
 30
0.0000
 11
16.4226
 21
24.5529
 31
0.0000
  0
LINE
  8
25
 10
16.4226
 20
24.5529
 30
0.0000
 11
16.0074
 21
24.5529
 31
0.0000
  0
LINE
  8
25
 10
16.0074
 20
24.5529
 30
0.0000
 11
15.7998
 21
24.3453
 31
0.0000
  0
LINE
  8
25
 10
15.7998
 20
24.3453
 30
0.0000
 11
15.7998
 21
23.9301
 31
0.0000
  0
LINE
  8
25
 10
15.7998
 20
23.9301
 30
0.0000
 11
16.0074
 21
23.7225
 31
0.0000
  0
LINE
  8
25
 10
17.3171
 20
24.7606
 30
0.0000
 11
17.3171
 21
23.9301
 31
0.0000
  0
LINE
  8
25
 10
17.3171
 20
23.9301
 30
0.0000
 11
17.5247
 21
23.7225
 31
0.0000
  0
LINE
  8
25
 10
17.1095
 20
24.5529
 30
0.0000
 11
17.5247
 21
24.5529
 31
0.0000
  0
LINE
  8
25
 10
17.9827
 20
24.5529
 30
0.0000
 11
18.1903
 21
24.5529
 31
0.0000
  0
LINE
  8
25
 10
18.1903
 20
24.5529
 30
0.0000
 11
18.1903
 21
23.7225
 31
0.0000
  0
LINE
  8
25
 10
17.9827
 20
23.7225
 30
0.0000
 11
18.3979
 21
23.7225
 31
0.0000
  0
LINE
  8
25
 10
18.1903
 20
25.1758
 30
0.0000
 11
18.1903
 21
24.9682
 31
0.0000
  0
LINE
  8
25
 10
18.8558
 20
24.5529
 30
0.0000
 11
19.6863
 21
23.7225
 31
0.0000
  0
LINE
  8
25
 10
18.8558
 20
23.7225
 30
0.0000
 11
19.6863
 21
24.5529
 31
0.0000
  0
LINE
  8
25
 10
20.1655
 20
24.3453
 30
0.0000
 11
20.9960
 21
24.3453
 31
0.0000
  0
LINE
  8
25
 10
21.4753
 20
23.7225
 30
0.0000
 11
21.4753
 21
24.9682
 31
0.0000
  0
LINE
  8
25
 10
21.4753
 20
24.9682
 30
0.0000
 11
22.0981
 21
24.9682
 31
0.0000
  0
LINE
  8
25
 10
22.0981
 20
24.9682
 30
0.0000
 11
22.3057
 21
24.7606
 31
0.0000
  0
LINE
  8
25
 10
22.3057
 20
24.7606
 30
0.0000
 11
22.3057
 21
24.3453
 31
0.0000
  0
LINE
  8
25
 10
22.3057
 20
24.3453
 30
0.0000
 11
22.0981
 21
24.1377
 31
0.0000
  0
LINE
  8
25
 10
22.0981
 20
24.1377
 30
0.0000
 11
21.4753
 21
24.1377
 31
0.0000
  0
LINE
  8
25
 10
22.7850
 20
23.7225
 30
0.0000
 11
22.7850
 21
24.5529
 31
0.0000
  0
LINE
  8
25
 10
22.7850
 20
24.1377
 30
0.0000
 11
23.2002
 21
24.5529
 31
0.0000
  0
LINE
  8
25
 10
23.2002
 20
24.5529
 30
0.0000
 11
23.4078
 21
24.5529
 31
0.0000
  0
LINE
  8
25
 10
24.0840
 20
23.7225
 30
0.0000
 11
24.4993
 21
23.7225
 31
0.0000
  0
LINE
  8
25
 10
24.4993
 20
23.7225
 30
0.0000
 11
24.7069
 21
23.9301
 31
0.0000
  0
LINE
  8
25
 10
24.7069
 20
23.9301
 30
0.0000
 11
24.7069
 21
24.3453
 31
0.0000
  0
LINE
  8
25
 10
24.7069
 20
24.3453
 30
0.0000
 11
24.4993
 21
24.5529
 31
0.0000
  0
LINE
  8
25
 10
24.4993
 20
24.5529
 30
0.0000
 11
24.0840
 21
24.5529
 31
0.0000
  0
LINE
  8
25
 10
24.0840
 20
24.5529
 30
0.0000
 11
23.8764
 21
24.3453
 31
0.0000
  0
LINE
  8
25
 10
23.8764
 20
24.3453
 30
0.0000
 11
23.8764
 21
23.9301
 31
0.0000
  0
LINE
  8
25
 10
23.8764
 20
23.9301
 30
0.0000
 11
24.0840
 21
23.7225
 31
0.0000
  0
LINE
  8
25
 10
12.0889
 20
21.7965
 30
0.0000
 11
12.2965
 21
21.5889
 31
0.0000
  0
LINE
  8
25
 10
12.2965
 20
21.5889
 30
0.0000
 11
12.5041
 21
21.5889
 31
0.0000
  0
LINE
  8
25
 10
12.5041
 20
21.5889
 30
0.0000
 11
12.7117
 21
21.7965
 31
0.0000
  0
LINE
  8
25
 10
12.7117
 20
21.7965
 30
0.0000
 11
12.7117
 21
22.8346
 31
0.0000
  0
LINE
  8
25
 10
12.5041
 20
22.8346
 30
0.0000
 11
12.9193
 21
22.8346
 31
0.0000
  0
LINE
  8
25
 10
13.8138
 20
21.5889
 30
0.0000
 11
13.8138
 21
22.8346
 31
0.0000
  0
LINE
  8
25
 10
13.3986
 20
22.8346
 30
0.0000
 11
14.2291
 21
22.8346
 31
0.0000
  0
LINE
  8
25
 10
14.7084
 20
21.5889
 30
0.0000
 11
14.7084
 21
22.4193
 31
0.0000
  0
LINE
  8
25
 10
14.7084
 20
22.4193
 30
0.0000
 11
15.1236
 21
22.8346
 31
0.0000
  0
LINE
  8
25
 10
15.1236
 20
22.8346
 30
0.0000
 11
15.5388
 21
22.4193
 31
0.0000
  0
LINE
  8
25
 10
15.5388
 20
22.4193
 30
0.0000
 11
15.5388
 21
21.5889
 31
0.0000
  0
LINE
  8
25
 10
14.7084
 20
22.2117
 30
0.0000
 11
15.5388
 21
22.2117
 31
0.0000
  0
LINE
  8
25
 10
16.8485
 20
22.6270
 30
0.0000
 11
16.6409
 21
22.8346
 31
0.0000
  0
LINE
  8
25
 10
16.6409
 20
22.8346
 30
0.0000
 11
16.2257
 21
22.8346
 31
0.0000
  0
LINE
  8
25
 10
16.2257
 20
22.8346
 30
0.0000
 11
16.0181
 21
22.6270
 31
0.0000
  0
LINE
  8
25
 10
16.0181
 20
22.6270
 30
0.0000
 11
16.0181
 21
21.7965
 31
0.0000
  0
LINE
  8
25
 10
16.0181
 20
21.7965
 30
0.0000
 11
16.2257
 21
21.5889
 31
0.0000
  0
LINE
  8
25
 10
16.2257
 20
21.5889
 30
0.0000
 11
16.6409
 21
21.5889
 31
0.0000
  0
LINE
  8
25
 10
16.6409
 20
21.5889
 30
0.0000
 11
16.8485
 21
21.7965
 31
0.0000
  0
LINE
  8
25
 10
16.8485
 20
21.7965
 30
0.0000
 11
16.8485
 21
22.2117
 31
0.0000
  0
LINE
  8
25
 10
16.8485
 20
22.2117
 30
0.0000
 11
16.4333
 21
22.2117
 31
0.0000
  0
LINE
  8
25
 10
18.6375
 20
21.5889
 30
0.0000
 11
18.6375
 21
22.4193
 31
0.0000
  0
LINE
  8
25
 10
18.6375
 20
22.4193
 30
0.0000
 11
19.0527
 21
22.8346
 31
0.0000
  0
LINE
  8
25
 10
19.0527
 20
22.8346
 30
0.0000
 11
19.4680
 21
22.4193
 31
0.0000
  0
LINE
  8
25
 10
19.4680
 20
22.4193
 30
0.0000
 11
19.4680
 21
21.5889
 31
0.0000
  0
LINE
  8
25
 10
18.6375
 20
22.2117
 30
0.0000
 11
19.4680
 21
22.2117
 31
0.0000
  0
LINE
  8
25
 10
20.7777
 20
22.8346
 30
0.0000
 11
20.7777
 21
21.5889
 31
0.0000
  0
LINE
  8
25
 10
20.7777
 20
21.5889
 30
0.0000
 11
20.1549
 21
21.5889
 31
0.0000
  0
LINE
  8
25
 10
20.1549
 20
21.5889
 30
0.0000
 11
19.9473
 21
21.7965
 31
0.0000
  0
LINE
  8
25
 10
19.9473
 20
21.7965
 30
0.0000
 11
19.9473
 21
22.2117
 31
0.0000
  0
LINE
  8
25
 10
19.9473
 20
22.2117
 30
0.0000
 11
20.1549
 21
22.4193
 31
0.0000
  0
LINE
  8
25
 10
20.1549
 20
22.4193
 30
0.0000
 11
20.7777
 21
22.4193
 31
0.0000
  0
LINE
  8
25
 10
21.4646
 20
22.4193
 30
0.0000
 11
21.8798
 21
22.4193
 31
0.0000
  0
LINE
  8
25
 10
21.8798
 20
22.4193
 30
0.0000
 11
22.0874
 21
22.2117
 31
0.0000
  0
LINE
  8
25
 10
22.0874
 20
22.2117
 30
0.0000
 11
22.0874
 21
21.5889
 31
0.0000
  0
LINE
  8
25
 10
22.0874
 20
21.5889
 30
0.0000
 11
21.4646
 21
21.5889
 31
0.0000
  0
LINE
  8
25
 10
21.4646
 20
21.5889
 30
0.0000
 11
21.2570
 21
21.7965
 31
0.0000
  0
LINE
  8
25
 10
21.2570
 20
21.7965
 30
0.0000
 11
21.4646
 21
22.0041
 31
0.0000
  0
LINE
  8
25
 10
21.4646
 20
22.0041
 30
0.0000
 11
22.0874
 21
22.0041
 31
0.0000
  0
LINE
  8
25
 10
22.5667
 20
21.1737
 30
0.0000
 11
22.5667
 21
22.4193
 31
0.0000
  0
LINE
  8
25
 10
22.5667
 20
22.4193
 30
0.0000
 11
23.1895
 21
22.4193
 31
0.0000
  0
LINE
  8
25
 10
23.1895
 20
22.4193
 30
0.0000
 11
23.3971
 21
22.2117
 31
0.0000
  0
LINE
  8
25
 10
23.3971
 20
22.2117
 30
0.0000
 11
23.3971
 21
21.7965
 31
0.0000
  0
LINE
  8
25
 10
23.3971
 20
21.7965
 30
0.0000
 11
23.1895
 21
21.5889
 31
0.0000
  0
LINE
  8
25
 10
23.1895
 20
21.5889
 30
0.0000
 11
22.5667
 21
21.5889
 31
0.0000
  0
LINE
  8
25
 10
24.0840
 20
22.6270
 30
0.0000
 11
24.0840
 21
21.7965
 31
0.0000
  0
LINE
  8
25
 10
24.0840
 20
21.7965
 30
0.0000
 11
24.2916
 21
21.5889
 31
0.0000
  0
LINE
  8
25
 10
23.8764
 20
22.4193
 30
0.0000
 11
24.2916
 21
22.4193
 31
0.0000
  0
LINE
  8
25
 10
25.3724
 20
21.5889
 30
0.0000
 11
24.9572
 21
21.5889
 31
0.0000
  0
LINE
  8
25
 10
24.9572
 20
21.5889
 30
0.0000
 11
24.7496
 21
21.7965
 31
0.0000
  0
LINE
  8
25
 10
24.7496
 20
21.7965
 30
0.0000
 11
24.7496
 21
22.2117
 31
0.0000
  0
LINE
  8
25
 10
24.7496
 20
22.2117
 30
0.0000
 11
24.9572
 21
22.4193
 31
0.0000
  0
LINE
  8
25
 10
24.9572
 20
22.4193
 30
0.0000
 11
25.3724
 21
22.4193
 31
0.0000
  0
LINE
  8
25
 10
25.3724
 20
22.4193
 30
0.0000
 11
25.5800
 21
22.2117
 31
0.0000
  0
LINE
  8
25
 10
25.5800
 20
22.2117
 30
0.0000
 11
25.5800
 21
22.0041
 31
0.0000
  0
LINE
  8
25
 10
25.5800
 20
22.0041
 30
0.0000
 11
24.7496
 21
22.0041
 31
0.0000
  0
LINE
  8
25
 10
26.0593
 20
21.5889
 30
0.0000
 11
26.0593
 21
22.4193
 31
0.0000
  0
LINE
  8
25
 10
26.0593
 20
22.0041
 30
0.0000
 11
26.4745
 21
22.4193
 31
0.0000
  0
LINE
  8
25
 10
26.4745
 20
22.4193
 30
0.0000
 11
26.6821
 21
22.4193
 31
0.0000
  0
LINE
  8
21
 10
32.2381
 20
9.5652
 30
0.0000
 11
32.5516
 21
9.8787
 31
0.0000
  0
LINE
  8
21
 10
32.5516
 20
9.8787
 30
0.0000
 11
32.5516
 21
8.9381
 31
0.0000
  0
LINE
  8
21
 10
32.2381
 20
8.9381
 30
0.0000
 11
32.8652
 21
8.9381
 31
0.0000
  0
LINE
  8
21
 10
28.5381
 20
33.6652
 30
0.0000
 11
28.8516
 21
33.9787
 31
0.0000
  0
LINE
  8
21
 10
28.8516
 20
33.9787
 30
0.0000
 11
28.8516
 21
33.0381
 31
0.0000
  0
LINE
  8
21
 10
28.5381
 20
33.0381
 30
0.0000
 11
29.1652
 21
33.0381
 31
0.0000
  0
LINE
  8
21
 10
29.1652
 20
26.0381
 30
0.0000
 11
28.5381
 21
26.0381
 31
0.0000
  0
LINE
  8
21
 10
28.5381
 20
26.0381
 30
0.0000
 11
29.1652
 21
26.6652
 31
0.0000
  0
LINE
  8
21
 10
29.1652
 20
26.6652
 30
0.0000
 11
29.1652
 21
26.8219
 31
0.0000
  0
LINE
  8
21
 10
29.1652
 20
26.8219
 30
0.0000
 11
29.0084
 21
26.9787
 31
0.0000
  0
LINE
  8
21
 10
29.0084
 20
26.9787
 30
0.0000
 11
28.6949
 21
26.9787
 31
0.0000
  0
LINE
  8
21
 10
28.6949
 20
26.9787
 30
0.0000
 11
28.5381
 21
26.8219
 31
0.0000
  0
LINE
  8
21
 10
5.6652
 20
26.0381
 30
0.0000
 11
5.0381
 21
26.0381
 31
0.0000
  0
LINE
  8
21
 10
5.0381
 20
26.0381
 30
0.0000
 11
5.6652
 21
26.6652
 31
0.0000
  0
LINE
  8
21
 10
5.6652
 20
26.6652
 30
0.0000
 11
5.6652
 21
26.8219
 31
0.0000
  0
LINE
  8
21
 10
5.6652
 20
26.8219
 30
0.0000
 11
5.5084
 21
26.9787
 31
0.0000
  0
LINE
  8
21
 10
5.5084
 20
26.9787
 30
0.0000
 11
5.1949
 21
26.9787
 31
0.0000
  0
LINE
  8
21
 10
5.1949
 20
26.9787
 30
0.0000
 11
5.0381
 21
26.8219
 31
0.0000
  0
LINE
  8
21
 10
5.9736
 20
26.1949
 30
0.0000
 11
5.9736
 21
26.8219
 31
0.0000
  0
LINE
  8
21
 10
5.9736
 20
26.8219
 30
0.0000
 11
6.1304
 21
26.9787
 31
0.0000
  0
LINE
  8
21
 10
6.1304
 20
26.9787
 30
0.0000
 11
6.4439
 21
26.9787
 31
0.0000
  0
LINE
  8
21
 10
6.4439
 20
26.9787
 30
0.0000
 11
6.6007
 21
26.8219
 31
0.0000
  0
LINE
  8
21
 10
6.6007
 20
26.8219
 30
0.0000
 11
6.6007
 21
26.1949
 31
0.0000
  0
LINE
  8
21
 10
6.6007
 20
26.1949
 30
0.0000
 11
6.4439
 21
26.0381
 31
0.0000
  0
LINE
  8
21
 10
6.4439
 20
26.0381
 30
0.0000
 11
6.1304
 21
26.0381
 31
0.0000
  0
LINE
  8
21
 10
6.1304
 20
26.0381
 30
0.0000
 11
5.9736
 21
26.1949
 31
0.0000
  0
LINE
  8
21
 10
5.9736
 20
26.1949
 30
0.0000
 11
6.6007
 21
26.8219
 31
0.0000
  0
LINE
  8
21
 10
5.0381
 20
33.6652
 30
0.0000
 11
5.3516
 21
33.9787
 31
0.0000
  0
LINE
  8
21
 10
5.3516
 20
33.9787
 30
0.0000
 11
5.3516
 21
33.0381
 31
0.0000
  0
LINE
  8
21
 10
5.0381
 20
33.0381
 30
0.0000
 11
5.6652
 21
33.0381
 31
0.0000
  0
LINE
  8
21
 10
5.9736
 20
33.1949
 30
0.0000
 11
6.1304
 21
33.0381
 31
0.0000
  0
LINE
  8
21
 10
6.1304
 20
33.0381
 30
0.0000
 11
6.4439
 21
33.0381
 31
0.0000
  0
LINE
  8
21
 10
6.4439
 20
33.0381
 30
0.0000
 11
6.6007
 21
33.1949
 31
0.0000
  0
LINE
  8
21
 10
6.6007
 20
33.1949
 30
0.0000
 11
6.6007
 21
33.8219
 31
0.0000
  0
LINE
  8
21
 10
6.6007
 20
33.8219
 30
0.0000
 11
6.4439
 21
33.9787
 31
0.0000
  0
LINE
  8
21
 10
6.4439
 20
33.9787
 30
0.0000
 11
6.1304
 21
33.9787
 31
0.0000
  0
LINE
  8
21
 10
6.1304
 20
33.9787
 30
0.0000
 11
5.9736
 21
33.8219
 31
0.0000
  0
LINE
  8
21
 10
5.9736
 20
33.8219
 30
0.0000
 11
5.9736
 21
33.6652
 31
0.0000
  0
LINE
  8
21
 10
5.9736
 20
33.6652
 30
0.0000
 11
6.1304
 21
33.5084
 31
0.0000
  0
LINE
  8
21
 10
6.1304
 20
33.5084
 30
0.0000
 11
6.6007
 21
33.5084
 31
0.0000
  0
LINE
  8
21
 10
32.3381
 20
14.0949
 30
0.0000
 11
32.4949
 21
13.9381
 31
0.0000
  0
LINE
  8
21
 10
32.4949
 20
13.9381
 30
0.0000
 11
32.8084
 21
13.9381
 31
0.0000
  0
LINE
  8
21
 10
32.8084
 20
13.9381
 30
0.0000
 11
32.9652
 21
14.0949
 31
0.0000
  0
LINE
  8
21
 10
32.9652
 20
14.0949
 30
0.0000
 11
32.9652
 21
14.7219
 31
0.0000
  0
LINE
  8
21
 10
32.9652
 20
14.7219
 30
0.0000
 11
32.8084
 21
14.8787
 31
0.0000
  0
LINE
  8
21
 10
32.8084
 20
14.8787
 30
0.0000
 11
32.4949
 21
14.8787
 31
0.0000
  0
LINE
  8
21
 10
32.4949
 20
14.8787
 30
0.0000
 11
32.3381
 21
14.7219
 31
0.0000
  0
LINE
  8
21
 10
32.3381
 20
14.7219
 30
0.0000
 11
32.3381
 21
14.5652
 31
0.0000
  0
LINE
  8
21
 10
32.3381
 20
14.5652
 30
0.0000
 11
32.4949
 21
14.4084
 31
0.0000
  0
LINE
  8
21
 10
32.4949
 20
14.4084
 30
0.0000
 11
32.9652
 21
14.4084
 31
0.0000
  0
LINE
  8
21
 10
26.0381
 20
14.6652
 30
0.0000
 11
26.3516
 21
14.9787
 31
0.0000
  0
LINE
  8
21
 10
26.3516
 20
14.9787
 30
0.0000
 11
26.3516
 21
14.0381
 31
0.0000
  0
LINE
  8
21
 10
26.0381
 20
14.0381
 30
0.0000
 11
26.6652
 21
14.0381
 31
0.0000
  0
LINE
  8
21
 10
26.9736
 20
14.1949
 30
0.0000
 11
26.9736
 21
14.8219
 31
0.0000
  0
LINE
  8
21
 10
26.9736
 20
14.8219
 30
0.0000
 11
27.1304
 21
14.9787
 31
0.0000
  0
LINE
  8
21
 10
27.1304
 20
14.9787
 30
0.0000
 11
27.4439
 21
14.9787
 31
0.0000
  0
LINE
  8
21
 10
27.4439
 20
14.9787
 30
0.0000
 11
27.6007
 21
14.8219
 31
0.0000
  0
LINE
  8
21
 10
27.6007
 20
14.8219
 30
0.0000
 11
27.6007
 21
14.1949
 31
0.0000
  0
LINE
  8
21
 10
27.6007
 20
14.1949
 30
0.0000
 11
27.4439
 21
14.0381
 31
0.0000
  0
LINE
  8
21
 10
27.4439
 20
14.0381
 30
0.0000
 11
27.1304
 21
14.0381
 31
0.0000
  0
LINE
  8
21
 10
27.1304
 20
14.0381
 30
0.0000
 11
26.9736
 21
14.1949
 31
0.0000
  0
LINE
  8
21
 10
26.9736
 20
14.1949
 30
0.0000
 11
27.6007
 21
14.8219
 31
0.0000
  0
LINE
  8
21
 10
27.4652
 20
8.8381
 30
0.0000
 11
26.8381
 21
8.8381
 31
0.0000
  0
LINE
  8
21
 10
26.8381
 20
8.8381
 30
0.0000
 11
27.4652
 21
9.4652
 31
0.0000
  0
LINE
  8
21
 10
27.4652
 20
9.4652
 30
0.0000
 11
27.4652
 21
9.6219
 31
0.0000
  0
LINE
  8
21
 10
27.4652
 20
9.6219
 30
0.0000
 11
27.3084
 21
9.7787
 31
0.0000
  0
LINE
  8
21
 10
27.3084
 20
9.7787
 30
0.0000
 11
26.9949
 21
9.7787
 31
0.0000
  0
LINE
  8
21
 10
26.9949
 20
9.7787
 30
0.0000
 11
26.8381
 21
9.6219
 31
0.0000
  0
CIRCLE
  8
51
 10
-7.5000
 20
19.0000
 30
0.0000
 40
1.6000
  0
CIRCLE
  8
51
 10
52.5000
 20
19.0000
 30
0.0000
 40
1.6000
  0
CIRCLE
  8
51
 10
52.5000
 20
-41.0000
 30
0.0000
 40
1.6000
  0
CIRCLE
  8
51
 10
-7.5000
 20
-41.0000
 30
0.0000
 40
1.6000
  0
POINT
  8
23
 10
11.0000
 20
18.0000
 30
0.0000
  0
LINE
  8
21
 10
12.2700
 20
18.6350
 30
0.0000
 11
11.6350
 21
19.2700
 31
0.0000
  0
LINE
  8
21
 10
11.6350
 20
19.2700
 30
0.0000
 11
10.3650
 21
19.2700
 31
0.0000
  0
LINE
  8
21
 10
10.3650
 20
19.2700
 30
0.0000
 11
9.7300
 21
18.6350
 31
0.0000
  0
LINE
  8
21
 10
9.7300
 20
18.6350
 30
0.0000
 11
9.7300
 21
17.3650
 31
0.0000
  0
LINE
  8
21
 10
9.7300
 20
17.3650
 30
0.0000
 11
10.3650
 21
16.7300
 31
0.0000
  0
LINE
  8
21
 10
10.3650
 20
16.7300
 30
0.0000
 11
11.6350
 21
16.7300
 31
0.0000
  0
LINE
  8
21
 10
11.6350
 20
16.7300
 30
0.0000
 11
12.2700
 21
17.3650
 31
0.0000
  0
LINE
  8
21
 10
12.2700
 20
17.3650
 30
0.0000
 11
12.2700
 21
18.6350
 31
0.0000
  0
INSERT
  8
51
  2
RECT
 10
11.0000
 20
18.0000
 30
0.0000
 41
0.5080
 42
0.5080
 43
1.0000
 50
0.0000
  0
INSERT
  8
17
  2
ROUNDP
 10
11.0000
 20
18.0000
 30
0.0000
 41
1.8796
 42
1.8796
 43
1.0000
 50
90.0000
  0
INSERT
  8
17
  2
ROUNDP
 10
11.0000
 20
18.0000
 30
0.0000
 41
1.8796
 42
1.8796
 43
1.0000
 50
90.0000
  0
LINE
  8
25
 10
13.2234
 20
17.9813
 30
0.0000
 11
13.1005
 21
18.1041
 31
0.0000
  0
LINE
  8
25
 10
13.1005
 20
18.1041
 30
0.0000
 11
12.8548
 21
18.1041
 31
0.0000
  0
LINE
  8
25
 10
12.8548
 20
18.1041
 30
0.0000
 11
12.7319
 21
17.9813
 31
0.0000
  0
LINE
  8
25
 10
12.7319
 20
17.9813
 30
0.0000
 11
12.7319
 21
17.4898
 31
0.0000
  0
LINE
  8
25
 10
12.7319
 20
17.4898
 30
0.0000
 11
12.8548
 21
17.3669
 31
0.0000
  0
LINE
  8
25
 10
12.8548
 20
17.3669
 30
0.0000
 11
13.1005
 21
17.3669
 31
0.0000
  0
LINE
  8
25
 10
13.1005
 20
17.3669
 30
0.0000
 11
13.2234
 21
17.4898
 31
0.0000
  0
LINE
  8
25
 10
13.2234
 20
17.4898
 30
0.0000
 11
13.2234
 21
17.7355
 31
0.0000
  0
LINE
  8
25
 10
13.2234
 20
17.7355
 30
0.0000
 11
12.9776
 21
17.7355
 31
0.0000
  0
LINE
  8
25
 10
13.4803
 20
17.3669
 30
0.0000
 11
13.4803
 21
18.1041
 31
0.0000
  0
LINE
  8
25
 10
13.4803
 20
18.1041
 30
0.0000
 11
13.9718
 21
17.3669
 31
0.0000
  0
LINE
  8
25
 10
13.9718
 20
17.3669
 30
0.0000
 11
13.9718
 21
18.1041
 31
0.0000
  0
LINE
  8
25
 10
14.2287
 20
18.1041
 30
0.0000
 11
14.2287
 21
17.3669
 31
0.0000
  0
LINE
  8
25
 10
14.2287
 20
17.3669
 30
0.0000
 11
14.5973
 21
17.3669
 31
0.0000
  0
LINE
  8
25
 10
14.5973
 20
17.3669
 30
0.0000
 11
14.7202
 21
17.4898
 31
0.0000
  0
LINE
  8
25
 10
14.7202
 20
17.4898
 30
0.0000
 11
14.7202
 21
17.9813
 31
0.0000
  0
LINE
  8
25
 10
14.7202
 20
17.9813
 30
0.0000
 11
14.5973
 21
18.1041
 31
0.0000
  0
LINE
  8
25
 10
14.5973
 20
18.1041
 30
0.0000
 11
14.2287
 21
18.1041
 31
0.0000
  0
POINT
  8
23
 10
11.0000
 20
15.5000
 30
0.0000
  0
LINE
  8
21
 10
12.2700
 20
16.1350
 30
0.0000
 11
11.6350
 21
16.7700
 31
0.0000
  0
LINE
  8
21
 10
11.6350
 20
16.7700
 30
0.0000
 11
10.3650
 21
16.7700
 31
0.0000
  0
LINE
  8
21
 10
10.3650
 20
16.7700
 30
0.0000
 11
9.7300
 21
16.1350
 31
0.0000
  0
LINE
  8
21
 10
9.7300
 20
16.1350
 30
0.0000
 11
9.7300
 21
14.8650
 31
0.0000
  0
LINE
  8
21
 10
9.7300
 20
14.8650
 30
0.0000
 11
10.3650
 21
14.2300
 31
0.0000
  0
LINE
  8
21
 10
10.3650
 20
14.2300
 30
0.0000
 11
11.6350
 21
14.2300
 31
0.0000
  0
LINE
  8
21
 10
11.6350
 20
14.2300
 30
0.0000
 11
12.2700
 21
14.8650
 31
0.0000
  0
LINE
  8
21
 10
12.2700
 20
14.8650
 30
0.0000
 11
12.2700
 21
16.1350
 31
0.0000
  0
INSERT
  8
51
  2
RECT
 10
11.0000
 20
15.5000
 30
0.0000
 41
0.5080
 42
0.5080
 43
1.0000
 50
0.0000
  0
INSERT
  8
17
  2
ROUNDP
 10
11.0000
 20
15.5000
 30
0.0000
 41
1.8796
 42
1.8796
 43
1.0000
 50
90.0000
  0
INSERT
  8
17
  2
ROUNDP
 10
11.0000
 20
15.5000
 30
0.0000
 41
1.8796
 42
1.8796
 43
1.0000
 50
90.0000
  0
LINE
  8
25
 10
13.2234
 20
15.4813
 30
0.0000
 11
13.1005
 21
15.6041
 31
0.0000
  0
LINE
  8
25
 10
13.1005
 20
15.6041
 30
0.0000
 11
12.8548
 21
15.6041
 31
0.0000
  0
LINE
  8
25
 10
12.8548
 20
15.6041
 30
0.0000
 11
12.7319
 21
15.4813
 31
0.0000
  0
LINE
  8
25
 10
12.7319
 20
15.4813
 30
0.0000
 11
12.7319
 21
14.9898
 31
0.0000
  0
LINE
  8
25
 10
12.7319
 20
14.9898
 30
0.0000
 11
12.8548
 21
14.8669
 31
0.0000
  0
LINE
  8
25
 10
12.8548
 20
14.8669
 30
0.0000
 11
13.1005
 21
14.8669
 31
0.0000
  0
LINE
  8
25
 10
13.1005
 20
14.8669
 30
0.0000
 11
13.2234
 21
14.9898
 31
0.0000
  0
LINE
  8
25
 10
13.2234
 20
14.9898
 30
0.0000
 11
13.2234
 21
15.2355
 31
0.0000
  0
LINE
  8
25
 10
13.2234
 20
15.2355
 30
0.0000
 11
12.9776
 21
15.2355
 31
0.0000
  0
LINE
  8
25
 10
13.4803
 20
14.8669
 30
0.0000
 11
13.4803
 21
15.6041
 31
0.0000
  0
LINE
  8
25
 10
13.4803
 20
15.6041
 30
0.0000
 11
13.9718
 21
14.8669
 31
0.0000
  0
LINE
  8
25
 10
13.9718
 20
14.8669
 30
0.0000
 11
13.9718
 21
15.6041
 31
0.0000
  0
LINE
  8
25
 10
14.2287
 20
15.6041
 30
0.0000
 11
14.2287
 21
14.8669
 31
0.0000
  0
LINE
  8
25
 10
14.2287
 20
14.8669
 30
0.0000
 11
14.5973
 21
14.8669
 31
0.0000
  0
LINE
  8
25
 10
14.5973
 20
14.8669
 30
0.0000
 11
14.7202
 21
14.9898
 31
0.0000
  0
LINE
  8
25
 10
14.7202
 20
14.9898
 30
0.0000
 11
14.7202
 21
15.4813
 31
0.0000
  0
LINE
  8
25
 10
14.7202
 20
15.4813
 30
0.0000
 11
14.5973
 21
15.6041
 31
0.0000
  0
LINE
  8
25
 10
14.5973
 20
15.6041
 30
0.0000
 11
14.2287
 21
15.6041
 31
0.0000
  0
LINE
  8
25
 10
14.9771
 20
15.6041
 30
0.0000
 11
15.1000
 21
15.7270
 31
0.0000
  0
LINE
  8
25
 10
15.1000
 20
15.7270
 30
0.0000
 11
15.3458
 21
15.4813
 31
0.0000
  0
LINE
  8
25
 10
15.3458
 20
15.4813
 30
0.0000
 11
15.4686
 21
15.6041
 31
0.0000
  0
POINT
  8
23
 10
5.0000
 20
4.0000
 30
0.0000
  0
ARC
  8
51
 10
5.0000
 20
4.0000
 30
0.0000
 40
2.1590
 50
180.0000
 51
270.0000
  0
ARC
  8
51
 10
5.0000
 20
4.0000
 30
0.0000
 40
2.1590
 50
0.0000
 51
90.0000
  0
CIRCLE
  8
21
 10
5.0000
 20
4.0000
 30
0.0000
 40
3.4290
  0
CIRCLE
  8
51
 10
5.0000
 20
4.0000
 30
0.0000
 40
0.7620
  0
CIRCLE
  8
21
 10
5.0000
 20
4.0000
 30
0.0000
 40
1.6000
  0
INSERT
  8
17
  2
ROUNDP
 10
5.0000
 20
4.0000
 30
0.0000
 41
5.8420
 42
5.8420
 43
1.0000
 50
0.0000
  0
INSERT
  8
17
  2
ROUNDP
 10
5.0000
 20
4.0000
 30
0.0000
 41
5.8420
 42
5.8420
 43
1.0000
 50
0.0000
  0
POINT
  8
23
 10
30.0000
 20
4.0000
 30
0.0000
  0
ARC
  8
51
 10
30.0000
 20
4.0000
 30
0.0000
 40
2.1590
 50
180.0000
 51
270.0000
  0
ARC
  8
51
 10
30.0000
 20
4.0000
 30
0.0000
 40
2.1590
 50
0.0000
 51
90.0000
  0
CIRCLE
  8
21
 10
30.0000
 20
4.0000
 30
0.0000
 40
3.4290
  0
CIRCLE
  8
51
 10
30.0000
 20
4.0000
 30
0.0000
 40
0.7620
  0
CIRCLE
  8
21
 10
30.0000
 20
4.0000
 30
0.0000
 40
1.6000
  0
INSERT
  8
17
  2
ROUNDP
 10
30.0000
 20
4.0000
 30
0.0000
 41
5.8420
 42
5.8420
 43
1.0000
 50
0.0000
  0
INSERT
  8
17
  2
ROUNDP
 10
30.0000
 20
4.0000
 30
0.0000
 41
5.8420
 42
5.8420
 43
1.0000
 50
0.0000
  0
POINT
  8
23
 10
5.0000
 20
20.0000
 30
0.0000
  0
ARC
  8
51
 10
5.0000
 20
20.0000
 30
0.0000
 40
2.1590
 50
180.0000
 51
270.0000
  0
ARC
  8
51
 10
5.0000
 20
20.0000
 30
0.0000
 40
2.1590
 50
0.0000
 51
90.0000
  0
CIRCLE
  8
21
 10
5.0000
 20
20.0000
 30
0.0000
 40
3.4290
  0
CIRCLE
  8
51
 10
5.0000
 20
20.0000
 30
0.0000
 40
0.7620
  0
CIRCLE
  8
21
 10
5.0000
 20
20.0000
 30
0.0000
 40
1.6000
  0
INSERT
  8
17
  2
ROUNDP
 10
5.0000
 20
20.0000
 30
0.0000
 41
5.8420
 42
5.8420
 43
1.0000
 50
0.0000
  0
INSERT
  8
17
  2
ROUNDP
 10
5.0000
 20
20.0000
 30
0.0000
 41
5.8420
 42
5.8420
 43
1.0000
 50
0.0000
  0
POINT
  8
23
 10
30.0000
 20
20.0000
 30
0.0000
  0
ARC
  8
51
 10
30.0000
 20
20.0000
 30
0.0000
 40
2.1590
 50
180.0000
 51
270.0000
  0
ARC
  8
51
 10
30.0000
 20
20.0000
 30
0.0000
 40
2.1590
 50
0.0000
 51
90.0000
  0
CIRCLE
  8
21
 10
30.0000
 20
20.0000
 30
0.0000
 40
3.4290
  0
CIRCLE
  8
51
 10
30.0000
 20
20.0000
 30
0.0000
 40
0.7620
  0
CIRCLE
  8
21
 10
30.0000
 20
20.0000
 30
0.0000
 40
1.6000
  0
INSERT
  8
17
  2
ROUNDP
 10
30.0000
 20
20.0000
 30
0.0000
 41
5.8420
 42
5.8420
 43
1.0000
 50
0.0000
  0
INSERT
  8
17
  2
ROUNDP
 10
30.0000
 20
20.0000
 30
0.0000
 41
5.8420
 42
5.8420
 43
1.0000
 50
0.0000
  0
POINT
  8
23
 10
30.6000
 20
15.7000
 30
0.0000
  0
LINE
  8
21
 10
29.9650
 20
8.7150
 30
0.0000
 11
29.8380
 21
8.5880
 31
0.0000
  0
LINE
  8
21
 10
29.8380
 20
8.5880
 30
0.0000
 11
28.8220
 21
8.5880
 31
0.0000
  0
LINE
  8
21
 10
28.8220
 20
8.5880
 30
0.0000
 11
28.5680
 21
8.8420
 31
0.0000
  0
LINE
  8
21
 10
28.5680
 20
8.8420
 30
0.0000
 11
28.5680
 21
9.8580
 31
0.0000
  0
LINE
  8
21
 10
28.5680
 20
9.8580
 30
0.0000
 11
28.6950
 21
9.9850
 31
0.0000
  0
LINE
  8
21
 10
28.6950
 20
9.9850
 30
0.0000
 11
28.5680
 21
10.1120
 31
0.0000
  0
LINE
  8
21
 10
28.5680
 20
10.1120
 30
0.0000
 11
28.5680
 21
11.1280
 31
0.0000
  0
LINE
  8
21
 10
28.5680
 20
11.1280
 30
0.0000
 11
28.6950
 21
11.2550
 31
0.0000
  0
LINE
  8
21
 10
28.6950
 20
11.2550
 30
0.0000
 11
28.5680
 21
11.3820
 31
0.0000
  0
LINE
  8
21
 10
28.5680
 20
11.3820
 30
0.0000
 11
28.5680
 21
12.3980
 31
0.0000
  0
LINE
  8
21
 10
28.5680
 20
12.3980
 30
0.0000
 11
28.6950
 21
12.5250
 31
0.0000
  0
LINE
  8
21
 10
28.6950
 20
12.5250
 30
0.0000
 11
28.5680
 21
12.6520
 31
0.0000
  0
LINE
  8
21
 10
28.5680
 20
12.6520
 30
0.0000
 11
28.5680
 21
13.6680
 31
0.0000
  0
LINE
  8
21
 10
28.5680
 20
13.6680
 30
0.0000
 11
28.6950
 21
13.7950
 31
0.0000
  0
LINE
  8
21
 10
28.6950
 20
13.7950
 30
0.0000
 11
28.5680
 21
13.9220
 31
0.0000
  0
LINE
  8
21
 10
28.5680
 20
13.9220
 30
0.0000
 11
28.5680
 21
14.9380
 31
0.0000
  0
LINE
  8
21
 10
28.5680
 20
14.9380
 30
0.0000
 11
28.8220
 21
15.1920
 31
0.0000
  0
LINE
  8
21
 10
28.8220
 20
15.1920
 30
0.0000
 11
29.8380
 21
15.1920
 31
0.0000
  0
LINE
  8
21
 10
29.8380
 20
15.1920
 30
0.0000
 11
29.9650
 21
15.0650
 31
0.0000
  0
LINE
  8
21
 10
29.9650
 20
15.0650
 30
0.0000
 11
30.0920
 21
15.1920
 31
0.0000
  0
LINE
  8
21
 10
30.0920
 20
15.1920
 30
0.0000
 11
31.1080
 21
15.1920
 31
0.0000
  0
LINE
  8
21
 10
31.1080
 20
15.1920
 30
0.0000
 11
31.3620
 21
14.9380
 31
0.0000
  0
LINE
  8
21
 10
31.3620
 20
14.9380
 30
0.0000
 11
31.3620
 21
13.9220
 31
0.0000
  0
LINE
  8
21
 10
31.3620
 20
13.9220
 30
0.0000
 11
31.2350
 21
13.7950
 31
0.0000
  0
LINE
  8
21
 10
31.2350
 20
13.7950
 30
0.0000
 11
31.3620
 21
13.6680
 31
0.0000
  0
LINE
  8
21
 10
31.3620
 20
13.6680
 30
0.0000
 11
31.3620
 21
12.6520
 31
0.0000
  0
LINE
  8
21
 10
31.3620
 20
12.6520
 30
0.0000
 11
31.2350
 21
12.5250
 31
0.0000
  0
LINE
  8
21
 10
31.2350
 20
12.5250
 30
0.0000
 11
31.3620
 21
12.3980
 31
0.0000
  0
LINE
  8
21
 10
31.3620
 20
12.3980
 30
0.0000
 11
31.3620
 21
11.3820
 31
0.0000
  0
LINE
  8
21
 10
31.3620
 20
11.3820
 30
0.0000
 11
31.2350
 21
11.2550
 31
0.0000
  0
LINE
  8
21
 10
31.2350
 20
11.2550
 30
0.0000
 11
31.3620
 21
11.1280
 31
0.0000
  0
LINE
  8
21
 10
31.3620
 20
11.1280
 30
0.0000
 11
31.3620
 21
10.1120
 31
0.0000
  0
LINE
  8
21
 10
31.3620
 20
10.1120
 30
0.0000
 11
31.2350
 21
9.9850
 31
0.0000
  0
LINE
  8
21
 10
31.2350
 20
9.9850
 30
0.0000
 11
31.3620
 21
9.8580
 31
0.0000
  0
LINE
  8
21
 10
31.3620
 20
9.8580
 30
0.0000
 11
31.3620
 21
8.8420
 31
0.0000
  0
LINE
  8
21
 10
31.3620
 20
8.8420
 30
0.0000
 11
31.1080
 21
8.5880
 31
0.0000
  0
LINE
  8
21
 10
31.1080
 20
8.5880
 30
0.0000
 11
30.0920
 21
8.5880
 31
0.0000
  0
LINE
  8
21
 10
30.0920
 20
8.5880
 30
0.0000
 11
29.9650
 21
8.7150
 31
0.0000
  0
LINE
  8
21
 10
31.1080
 20
8.3340
 30
0.0000
 11
30.0920
 21
8.3340
 31
0.0000
  0
INSERT
  8
17
  2
OFFSETP100
 10
30.6000
 20
9.3500
 30
0.0000
 41
1.0500
 42
1.0500
 43
1.0000
 50
0.0000
  0
INSERT
  8
17
  2
OFFSETP100
 10
30.6000
 20
9.3500
 30
0.0000
 41
1.0500
 42
1.0500
 43
1.0000
 50
0.0000
  0
INSERT
  8
17
  2
OFFSETP100
 10
29.3300
 20
9.3500
 30
0.0000
 41
1.0500
 42
1.0500
 43
1.0000
 50
180.0000
  0
INSERT
  8
17
  2
OFFSETP100
 10
29.3300
 20
9.3500
 30
0.0000
 41
1.0500
 42
1.0500
 43
1.0000
 50
180.0000
  0
INSERT
  8
17
  2
OFFSETP100
 10
30.6000
 20
10.6200
 30
0.0000
 41
1.0500
 42
1.0500
 43
1.0000
 50
0.0000
  0
INSERT
  8
17
  2
OFFSETP100
 10
30.6000
 20
10.6200
 30
0.0000
 41
1.0500
 42
1.0500
 43
1.0000
 50
0.0000
  0
INSERT
  8
17
  2
OFFSETP100
 10
29.3300
 20
10.6200
 30
0.0000
 41
1.0500
 42
1.0500
 43
1.0000
 50
180.0000
  0
INSERT
  8
17
  2
OFFSETP100
 10
29.3300
 20
10.6200
 30
0.0000
 41
1.0500
 42
1.0500
 43
1.0000
 50
180.0000
  0
INSERT
  8
17
  2
OFFSETP100
 10
30.6000
 20
11.8900
 30
0.0000
 41
1.0500
 42
1.0500
 43
1.0000
 50
0.0000
  0
INSERT
  8
17
  2
OFFSETP100
 10
30.6000
 20
11.8900
 30
0.0000
 41
1.0500
 42
1.0500
 43
1.0000
 50
0.0000
  0
INSERT
  8
17
  2
OFFSETP100
 10
29.3300
 20
11.8900
 30
0.0000
 41
1.0500
 42
1.0500
 43
1.0000
 50
180.0000
  0
INSERT
  8
17
  2
OFFSETP100
 10
29.3300
 20
11.8900
 30
0.0000
 41
1.0500
 42
1.0500
 43
1.0000
 50
180.0000
  0
INSERT
  8
17
  2
OFFSETP100
 10
30.6000
 20
13.1600
 30
0.0000
 41
1.0500
 42
1.0500
 43
1.0000
 50
0.0000
  0
INSERT
  8
17
  2
OFFSETP100
 10
30.6000
 20
13.1600
 30
0.0000
 41
1.0500
 42
1.0500
 43
1.0000
 50
0.0000
  0
INSERT
  8
17
  2
OFFSETP100
 10
29.3300
 20
13.1600
 30
0.0000
 41
1.0500
 42
1.0500
 43
1.0000
 50
180.0000
  0
INSERT
  8
17
  2
OFFSETP100
 10
29.3300
 20
13.1600
 30
0.0000
 41
1.0500
 42
1.0500
 43
1.0000
 50
180.0000
  0
INSERT
  8
17
  2
OFFSETP100
 10
30.6000
 20
14.4300
 30
0.0000
 41
1.0500
 42
1.0500
 43
1.0000
 50
0.0000
  0
INSERT
  8
17
  2
OFFSETP100
 10
30.6000
 20
14.4300
 30
0.0000
 41
1.0500
 42
1.0500
 43
1.0000
 50
0.0000
  0
INSERT
  8
17
  2
OFFSETP100
 10
29.3300
 20
14.4300
 30
0.0000
 41
1.0500
 42
1.0500
 43
1.0000
 50
180.0000
  0
INSERT
  8
17
  2
OFFSETP100
 10
29.3300
 20
14.4300
 30
0.0000
 41
1.0500
 42
1.0500
 43
1.0000
 50
180.0000
  0
POINT
  8
23
 10
11.0000
 20
3.0000
 30
0.0000
  0
LINE
  8
21
 10
12.2700
 20
3.6350
 30
0.0000
 11
11.6350
 21
4.2700
 31
0.0000
  0
LINE
  8
21
 10
11.6350
 20
4.2700
 30
0.0000
 11
10.3650
 21
4.2700
 31
0.0000
  0
LINE
  8
21
 10
10.3650
 20
4.2700
 30
0.0000
 11
9.7300
 21
3.6350
 31
0.0000
  0
LINE
  8
21
 10
9.7300
 20
3.6350
 30
0.0000
 11
9.7300
 21
2.3650
 31
0.0000
  0
LINE
  8
21
 10
9.7300
 20
2.3650
 30
0.0000
 11
10.3650
 21
1.7300
 31
0.0000
  0
LINE
  8
21
 10
10.3650
 20
1.7300
 30
0.0000
 11
11.6350
 21
1.7300
 31
0.0000
  0
LINE
  8
21
 10
11.6350
 20
1.7300
 30
0.0000
 11
12.2700
 21
2.3650
 31
0.0000
  0
LINE
  8
21
 10
12.2700
 20
2.3650
 30
0.0000
 11
12.2700
 21
3.6350
 31
0.0000
  0
INSERT
  8
51
  2
RECT
 10
11.0000
 20
3.0000
 30
0.0000
 41
0.5080
 42
0.5080
 43
1.0000
 50
0.0000
  0
INSERT
  8
17
  2
ROUNDP
 10
11.0000
 20
3.0000
 30
0.0000
 41
1.8796
 42
1.8796
 43
1.0000
 50
90.0000
  0
INSERT
  8
17
  2
ROUNDP
 10
11.0000
 20
3.0000
 30
0.0000
 41
1.8796
 42
1.8796
 43
1.0000
 50
90.0000
  0
LINE
  8
25
 10
12.7319
 20
2.4898
 30
0.0000
 11
12.8548
 21
2.3669
 31
0.0000
  0
LINE
  8
25
 10
12.8548
 20
2.3669
 30
0.0000
 11
12.9776
 21
2.3669
 31
0.0000
  0
LINE
  8
25
 10
12.9776
 20
2.3669
 30
0.0000
 11
13.1005
 21
2.4898
 31
0.0000
  0
LINE
  8
25
 10
13.1005
 20
2.4898
 30
0.0000
 11
13.1005
 21
3.1041
 31
0.0000
  0
LINE
  8
25
 10
12.9776
 20
3.1041
 30
0.0000
 11
13.2234
 21
3.1041
 31
0.0000
  0
LINE
  8
25
 10
13.7261
 20
2.3669
 30
0.0000
 11
13.7261
 21
3.1041
 31
0.0000
  0
LINE
  8
25
 10
13.4803
 20
3.1041
 30
0.0000
 11
13.9718
 21
3.1041
 31
0.0000
  0
LINE
  8
25
 10
14.2287
 20
2.3669
 30
0.0000
 11
14.2287
 21
2.8584
 31
0.0000
  0
LINE
  8
25
 10
14.2287
 20
2.8584
 30
0.0000
 11
14.4745
 21
3.1041
 31
0.0000
  0
LINE
  8
25
 10
14.4745
 20
3.1041
 30
0.0000
 11
14.7202
 21
2.8584
 31
0.0000
  0
LINE
  8
25
 10
14.7202
 20
2.8584
 30
0.0000
 11
14.7202
 21
2.3669
 31
0.0000
  0
LINE
  8
25
 10
14.2287
 20
2.7355
 30
0.0000
 11
14.7202
 21
2.7355
 31
0.0000
  0
LINE
  8
25
 10
15.4686
 20
2.9813
 30
0.0000
 11
15.3458
 21
3.1041
 31
0.0000
  0
LINE
  8
25
 10
15.3458
 20
3.1041
 30
0.0000
 11
15.1000
 21
3.1041
 31
0.0000
  0
LINE
  8
25
 10
15.1000
 20
3.1041
 30
0.0000
 11
14.9771
 21
2.9813
 31
0.0000
  0
LINE
  8
25
 10
14.9771
 20
2.9813
 30
0.0000
 11
14.9771
 21
2.4898
 31
0.0000
  0
LINE
  8
25
 10
14.9771
 20
2.4898
 30
0.0000
 11
15.1000
 21
2.3669
 31
0.0000
  0
LINE
  8
25
 10
15.1000
 20
2.3669
 30
0.0000
 11
15.3458
 21
2.3669
 31
0.0000
  0
LINE
  8
25
 10
15.3458
 20
2.3669
 30
0.0000
 11
15.4686
 21
2.4898
 31
0.0000
  0
LINE
  8
25
 10
15.4686
 20
2.4898
 30
0.0000
 11
15.4686
 21
2.7355
 31
0.0000
  0
LINE
  8
25
 10
15.4686
 20
2.7355
 30
0.0000
 11
15.2229
 21
2.7355
 31
0.0000
  0
LINE
  8
25
 10
15.7256
 20
2.8584
 30
0.0000
 11
15.9713
 21
3.1041
 31
0.0000
  0
LINE
  8
25
 10
15.9713
 20
3.1041
 30
0.0000
 11
15.9713
 21
2.3669
 31
0.0000
  0
LINE
  8
25
 10
15.7256
 20
2.3669
 30
0.0000
 11
16.2170
 21
2.3669
 31
0.0000
  0
LINE
  8
25
 10
16.4740
 20
2.4898
 30
0.0000
 11
16.4740
 21
2.9813
 31
0.0000
  0
LINE
  8
25
 10
16.4740
 20
2.9813
 30
0.0000
 11
16.5968
 21
3.1041
 31
0.0000
  0
LINE
  8
25
 10
16.5968
 20
3.1041
 30
0.0000
 11
16.8426
 21
3.1041
 31
0.0000
  0
LINE
  8
25
 10
16.8426
 20
3.1041
 30
0.0000
 11
16.9655
 21
2.9813
 31
0.0000
  0
LINE
  8
25
 10
16.9655
 20
2.9813
 30
0.0000
 11
16.9655
 21
2.4898
 31
0.0000
  0
LINE
  8
25
 10
16.9655
 20
2.4898
 30
0.0000
 11
16.8426
 21
2.3669
 31
0.0000
  0
LINE
  8
25
 10
16.8426
 20
2.3669
 30
0.0000
 11
16.5968
 21
2.3669
 31
0.0000
  0
LINE
  8
25
 10
16.5968
 20
2.3669
 30
0.0000
 11
16.4740
 21
2.4898
 31
0.0000
  0
LINE
  8
25
 10
16.4740
 20
2.4898
 30
0.0000
 11
16.9655
 21
2.9813
 31
0.0000
  0
LINE
  8
25
 10
17.2224
 20
2.7355
 30
0.0000
 11
17.7139
 21
2.7355
 31
0.0000
  0
LINE
  8
25
 10
17.9708
 20
3.1041
 30
0.0000
 11
18.4623
 21
3.1041
 31
0.0000
  0
LINE
  8
25
 10
18.4623
 20
3.1041
 30
0.0000
 11
18.4623
 21
2.9813
 31
0.0000
  0
LINE
  8
25
 10
18.4623
 20
2.9813
 30
0.0000
 11
17.9708
 21
2.4898
 31
0.0000
  0
LINE
  8
25
 10
17.9708
 20
2.4898
 30
0.0000
 11
17.9708
 21
2.3669
 31
0.0000
  0
POINT
  8
23
 10
11.0000
 20
13.0000
 30
0.0000
  0
LINE
  8
21
 10
12.2700
 20
13.6350
 30
0.0000
 11
11.6350
 21
14.2700
 31
0.0000
  0
LINE
  8
21
 10
11.6350
 20
14.2700
 30
0.0000
 11
10.3650
 21
14.2700
 31
0.0000
  0
LINE
  8
21
 10
10.3650
 20
14.2700
 30
0.0000
 11
9.7300
 21
13.6350
 31
0.0000
  0
LINE
  8
21
 10
9.7300
 20
13.6350
 30
0.0000
 11
9.7300
 21
12.3650
 31
0.0000
  0
LINE
  8
21
 10
9.7300
 20
12.3650
 30
0.0000
 11
10.3650
 21
11.7300
 31
0.0000
  0
LINE
  8
21
 10
10.3650
 20
11.7300
 30
0.0000
 11
11.6350
 21
11.7300
 31
0.0000
  0
LINE
  8
21
 10
11.6350
 20
11.7300
 30
0.0000
 11
12.2700
 21
12.3650
 31
0.0000
  0
LINE
  8
21
 10
12.2700
 20
12.3650
 30
0.0000
 11
12.2700
 21
13.6350
 31
0.0000
  0
INSERT
  8
51
  2
RECT
 10
11.0000
 20
13.0000
 30
0.0000
 41
0.5080
 42
0.5080
 43
1.0000
 50
0.0000
  0
INSERT
  8
17
  2
ROUNDP
 10
11.0000
 20
13.0000
 30
0.0000
 41
1.8796
 42
1.8796
 43
1.0000
 50
90.0000
  0
INSERT
  8
17
  2
ROUNDP
 10
11.0000
 20
13.0000
 30
0.0000
 41
1.8796
 42
1.8796
 43
1.0000
 50
90.0000
  0
LINE
  8
25
 10
12.7319
 20
12.4898
 30
0.0000
 11
12.8548
 21
12.3669
 31
0.0000
  0
LINE
  8
25
 10
12.8548
 20
12.3669
 30
0.0000
 11
12.9776
 21
12.3669
 31
0.0000
  0
LINE
  8
25
 10
12.9776
 20
12.3669
 30
0.0000
 11
13.1005
 21
12.4898
 31
0.0000
  0
LINE
  8
25
 10
13.1005
 20
12.4898
 30
0.0000
 11
13.1005
 21
13.1041
 31
0.0000
  0
LINE
  8
25
 10
12.9776
 20
13.1041
 30
0.0000
 11
13.2234
 21
13.1041
 31
0.0000
  0
LINE
  8
25
 10
13.7261
 20
12.3669
 30
0.0000
 11
13.7261
 21
13.1041
 31
0.0000
  0
LINE
  8
25
 10
13.4803
 20
13.1041
 30
0.0000
 11
13.9718
 21
13.1041
 31
0.0000
  0
LINE
  8
25
 10
14.2287
 20
12.3669
 30
0.0000
 11
14.2287
 21
12.8584
 31
0.0000
  0
LINE
  8
25
 10
14.2287
 20
12.8584
 30
0.0000
 11
14.4745
 21
13.1041
 31
0.0000
  0
LINE
  8
25
 10
14.4745
 20
13.1041
 30
0.0000
 11
14.7202
 21
12.8584
 31
0.0000
  0
LINE
  8
25
 10
14.7202
 20
12.8584
 30
0.0000
 11
14.7202
 21
12.3669
 31
0.0000
  0
LINE
  8
25
 10
14.2287
 20
12.7355
 30
0.0000
 11
14.7202
 21
12.7355
 31
0.0000
  0
LINE
  8
25
 10
15.4686
 20
12.9813
 30
0.0000
 11
15.3458
 21
13.1041
 31
0.0000
  0
LINE
  8
25
 10
15.3458
 20
13.1041
 30
0.0000
 11
15.1000
 21
13.1041
 31
0.0000
  0
LINE
  8
25
 10
15.1000
 20
13.1041
 30
0.0000
 11
14.9771
 21
12.9813
 31
0.0000
  0
LINE
  8
25
 10
14.9771
 20
12.9813
 30
0.0000
 11
14.9771
 21
12.4898
 31
0.0000
  0
LINE
  8
25
 10
14.9771
 20
12.4898
 30
0.0000
 11
15.1000
 21
12.3669
 31
0.0000
  0
LINE
  8
25
 10
15.1000
 20
12.3669
 30
0.0000
 11
15.3458
 21
12.3669
 31
0.0000
  0
LINE
  8
25
 10
15.3458
 20
12.3669
 30
0.0000
 11
15.4686
 21
12.4898
 31
0.0000
  0
LINE
  8
25
 10
15.4686
 20
12.4898
 30
0.0000
 11
15.4686
 21
12.7355
 31
0.0000
  0
LINE
  8
25
 10
15.4686
 20
12.7355
 30
0.0000
 11
15.2229
 21
12.7355
 31
0.0000
  0
LINE
  8
25
 10
15.7256
 20
12.8584
 30
0.0000
 11
15.9713
 21
13.1041
 31
0.0000
  0
LINE
  8
25
 10
15.9713
 20
13.1041
 30
0.0000
 11
15.9713
 21
12.3669
 31
0.0000
  0
LINE
  8
25
 10
15.7256
 20
12.3669
 30
0.0000
 11
16.2170
 21
12.3669
 31
0.0000
  0
LINE
  8
25
 10
16.4740
 20
12.4898
 30
0.0000
 11
16.4740
 21
12.9813
 31
0.0000
  0
LINE
  8
25
 10
16.4740
 20
12.9813
 30
0.0000
 11
16.5968
 21
13.1041
 31
0.0000
  0
LINE
  8
25
 10
16.5968
 20
13.1041
 30
0.0000
 11
16.8426
 21
13.1041
 31
0.0000
  0
LINE
  8
25
 10
16.8426
 20
13.1041
 30
0.0000
 11
16.9655
 21
12.9813
 31
0.0000
  0
LINE
  8
25
 10
16.9655
 20
12.9813
 30
0.0000
 11
16.9655
 21
12.4898
 31
0.0000
  0
LINE
  8
25
 10
16.9655
 20
12.4898
 30
0.0000
 11
16.8426
 21
12.3669
 31
0.0000
  0
LINE
  8
25
 10
16.8426
 20
12.3669
 30
0.0000
 11
16.5968
 21
12.3669
 31
0.0000
  0
LINE
  8
25
 10
16.5968
 20
12.3669
 30
0.0000
 11
16.4740
 21
12.4898
 31
0.0000
  0
LINE
  8
25
 10
16.4740
 20
12.4898
 30
0.0000
 11
16.9655
 21
12.9813
 31
0.0000
  0
LINE
  8
25
 10
17.2224
 20
12.7355
 30
0.0000
 11
17.7139
 21
12.7355
 31
0.0000
  0
LINE
  8
25
 10
17.9708
 20
12.4898
 30
0.0000
 11
18.0937
 21
12.3669
 31
0.0000
  0
LINE
  8
25
 10
18.0937
 20
12.3669
 30
0.0000
 11
18.3394
 21
12.3669
 31
0.0000
  0
LINE
  8
25
 10
18.3394
 20
12.3669
 30
0.0000
 11
18.4623
 21
12.4898
 31
0.0000
  0
LINE
  8
25
 10
18.4623
 20
12.4898
 30
0.0000
 11
18.4623
 21
12.9813
 31
0.0000
  0
LINE
  8
25
 10
18.4623
 20
12.9813
 30
0.0000
 11
18.3394
 21
13.1041
 31
0.0000
  0
LINE
  8
25
 10
18.3394
 20
13.1041
 30
0.0000
 11
18.0937
 21
13.1041
 31
0.0000
  0
LINE
  8
25
 10
18.0937
 20
13.1041
 30
0.0000
 11
17.9708
 21
12.9813
 31
0.0000
  0
LINE
  8
25
 10
17.9708
 20
12.9813
 30
0.0000
 11
17.9708
 21
12.8584
 31
0.0000
  0
LINE
  8
25
 10
17.9708
 20
12.8584
 30
0.0000
 11
18.0937
 21
12.7355
 31
0.0000
  0
LINE
  8
25
 10
18.0937
 20
12.7355
 30
0.0000
 11
18.4623
 21
12.7355
 31
0.0000
  0
POINT
  8
23
 10
17.5000
 20
30.0500
 30
0.0000
  0
LINE
  8
21
 10
30.2000
 20
31.9550
 30
0.0000
 11
29.5650
 21
32.5900
 31
0.0000
  0
LINE
  8
21
 10
28.2950
 20
32.5900
 30
0.0000
 11
27.6600
 21
31.9550
 31
0.0000
  0
LINE
  8
21
 10
27.6600
 20
31.9550
 30
0.0000
 11
27.0250
 21
32.5900
 31
0.0000
  0
LINE
  8
21
 10
25.7550
 20
32.5900
 30
0.0000
 11
25.1200
 21
31.9550
 31
0.0000
  0
LINE
  8
21
 10
25.1200
 20
31.9550
 30
0.0000
 11
24.4850
 21
32.5900
 31
0.0000
  0
LINE
  8
21
 10
23.2150
 20
32.5900
 30
0.0000
 11
22.5800
 21
31.9550
 31
0.0000
  0
LINE
  8
21
 10
22.5800
 20
31.9550
 30
0.0000
 11
21.9450
 21
32.5900
 31
0.0000
  0
LINE
  8
21
 10
20.6750
 20
32.5900
 30
0.0000
 11
20.0400
 21
31.9550
 31
0.0000
  0
LINE
  8
21
 10
20.0400
 20
31.9550
 30
0.0000
 11
19.4050
 21
32.5900
 31
0.0000
  0
LINE
  8
21
 10
18.1350
 20
32.5900
 30
0.0000
 11
17.5000
 21
31.9550
 31
0.0000
  0
LINE
  8
21
 10
17.5000
 20
31.9550
 30
0.0000
 11
16.8650
 21
32.5900
 31
0.0000
  0
LINE
  8
21
 10
15.5950
 20
32.5900
 30
0.0000
 11
14.9600
 21
31.9550
 31
0.0000
  0
LINE
  8
21
 10
30.2000
 20
31.9550
 30
0.0000
 11
30.2000
 21
28.1450
 31
0.0000
  0
LINE
  8
21
 10
30.2000
 20
28.1450
 30
0.0000
 11
29.5650
 21
27.5100
 31
0.0000
  0
LINE
  8
21
 10
29.5650
 20
27.5100
 30
0.0000
 11
28.2950
 21
27.5100
 31
0.0000
  0
LINE
  8
21
 10
28.2950
 20
27.5100
 30
0.0000
 11
27.6600
 21
28.1450
 31
0.0000
  0
LINE
  8
21
 10
27.6600
 20
28.1450
 30
0.0000
 11
27.0250
 21
27.5100
 31
0.0000
  0
LINE
  8
21
 10
27.0250
 20
27.5100
 30
0.0000
 11
25.7550
 21
27.5100
 31
0.0000
  0
LINE
  8
21
 10
25.7550
 20
27.5100
 30
0.0000
 11
25.1200
 21
28.1450
 31
0.0000
  0
LINE
  8
21
 10
25.1200
 20
28.1450
 30
0.0000
 11
24.4850
 21
27.5100
 31
0.0000
  0
LINE
  8
21
 10
24.4850
 20
27.5100
 30
0.0000
 11
23.2150
 21
27.5100
 31
0.0000
  0
LINE
  8
21
 10
23.2150
 20
27.5100
 30
0.0000
 11
22.5800
 21
28.1450
 31
0.0000
  0
LINE
  8
21
 10
22.5800
 20
28.1450
 30
0.0000
 11
21.9450
 21
27.5100
 31
0.0000
  0
LINE
  8
21
 10
21.9450
 20
27.5100
 30
0.0000
 11
20.6750
 21
27.5100
 31
0.0000
  0
LINE
  8
21
 10
20.6750
 20
27.5100
 30
0.0000
 11
20.0400
 21
28.1450
 31
0.0000
  0
LINE
  8
21
 10
20.0400
 20
28.1450
 30
0.0000
 11
19.4050
 21
27.5100
 31
0.0000
  0
LINE
  8
21
 10
19.4050
 20
27.5100
 30
0.0000
 11
18.1350
 21
27.5100
 31
0.0000
  0
LINE
  8
21
 10
18.1350
 20
27.5100
 30
0.0000
 11
17.5000
 21
28.1450
 31
0.0000
  0
LINE
  8
21
 10
17.5000
 20
28.1450
 30
0.0000
 11
16.8650
 21
27.5100
 31
0.0000
  0
LINE
  8
21
 10
16.8650
 20
27.5100
 30
0.0000
 11
15.5950
 21
27.5100
 31
0.0000
  0
LINE
  8
21
 10
15.5950
 20
27.5100
 30
0.0000
 11
14.9600
 21
28.1450
 31
0.0000
  0
LINE
  8
21
 10
14.9600
 20
28.1450
 30
0.0000
 11
14.3250
 21
27.5100
 31
0.0000
  0
LINE
  8
21
 10
14.3250
 20
27.5100
 30
0.0000
 11
13.0550
 21
27.5100
 31
0.0000
  0
LINE
  8
21
 10
13.0550
 20
27.5100
 30
0.0000
 11
12.4200
 21
28.1450
 31
0.0000
  0
LINE
  8
21
 10
12.4200
 20
28.1450
 30
0.0000
 11
11.7850
 21
27.5100
 31
0.0000
  0
LINE
  8
21
 10
11.7850
 20
27.5100
 30
0.0000
 11
10.5150
 21
27.5100
 31
0.0000
  0
LINE
  8
21
 10
10.5150
 20
27.5100
 30
0.0000
 11
9.8800
 21
28.1450
 31
0.0000
  0
LINE
  8
21
 10
9.8800
 20
28.1450
 30
0.0000
 11
9.2450
 21
27.5100
 31
0.0000
  0
LINE
  8
21
 10
9.2450
 20
27.5100
 30
0.0000
 11
7.9750
 21
27.5100
 31
0.0000
  0
LINE
  8
21
 10
7.9750
 20
27.5100
 30
0.0000
 11
7.3400
 21
28.1450
 31
0.0000
  0
LINE
  8
21
 10
7.3400
 20
31.9550
 30
0.0000
 11
7.9750
 21
32.5900
 31
0.0000
  0
LINE
  8
21
 10
9.8800
 20
31.9550
 30
0.0000
 11
9.2450
 21
32.5900
 31
0.0000
  0
LINE
  8
21
 10
9.8800
 20
31.9550
 30
0.0000
 11
10.5150
 21
32.5900
 31
0.0000
  0
LINE
  8
21
 10
12.4200
 20
31.9550
 30
0.0000
 11
11.7850
 21
32.5900
 31
0.0000
  0
LINE
  8
21
 10
12.4200
 20
31.9550
 30
0.0000
 11
13.0550
 21
32.5900
 31
0.0000
  0
LINE
  8
21
 10
14.9600
 20
31.9550
 30
0.0000
 11
14.3250
 21
32.5900
 31
0.0000
  0
LINE
  8
21
 10
27.6600
 20
28.1450
 30
0.0000
 11
27.6600
 21
31.9550
 31
0.0000
  0
LINE
  8
21
 10
25.1200
 20
28.1450
 30
0.0000
 11
25.1200
 21
31.9550
 31
0.0000
  0
LINE
  8
21
 10
22.5800
 20
28.1450
 30
0.0000
 11
22.5800
 21
31.9550
 31
0.0000
  0
LINE
  8
21
 10
20.0400
 20
28.1450
 30
0.0000
 11
20.0400
 21
31.9550
 31
0.0000
  0
LINE
  8
21
 10
17.5000
 20
28.1450
 30
0.0000
 11
17.5000
 21
31.9550
 31
0.0000
  0
LINE
  8
21
 10
14.9600
 20
28.1450
 30
0.0000
 11
14.9600
 21
31.9550
 31
0.0000
  0
LINE
  8
21
 10
12.4200
 20
28.1450
 30
0.0000
 11
12.4200
 21
31.9550
 31
0.0000
  0
LINE
  8
21
 10
9.8800
 20
28.1450
 30
0.0000
 11
9.8800
 21
31.9550
 31
0.0000
  0
LINE
  8
21
 10
7.3400
 20
28.1450
 30
0.0000
 11
7.3400
 21
31.9550
 31
0.0000
  0
LINE
  8
21
 10
9.2450
 20
32.5900
 30
0.0000
 11
7.9750
 21
32.5900
 31
0.0000
  0
LINE
  8
21
 10
11.7850
 20
32.5900
 30
0.0000
 11
10.5150
 21
32.5900
 31
0.0000
  0
LINE
  8
21
 10
14.3250
 20
32.5900
 30
0.0000
 11
13.0550
 21
32.5900
 31
0.0000
  0
LINE
  8
21
 10
16.8650
 20
32.5900
 30
0.0000
 11
15.5950
 21
32.5900
 31
0.0000
  0
LINE
  8
21
 10
19.4050
 20
32.5900
 30
0.0000
 11
18.1350
 21
32.5900
 31
0.0000
  0
LINE
  8
21
 10
21.9450
 20
32.5900
 30
0.0000
 11
20.6750
 21
32.5900
 31
0.0000
  0
LINE
  8
21
 10
24.4850
 20
32.5900
 30
0.0000
 11
23.2150
 21
32.5900
 31
0.0000
  0
LINE
  8
21
 10
27.0250
 20
32.5900
 30
0.0000
 11
25.7550
 21
32.5900
 31
0.0000
  0
LINE
  8
21
 10
29.5650
 20
32.5900
 30
0.0000
 11
28.2950
 21
32.5900
 31
0.0000
  0
LINE
  8
21
 10
7.3400
 20
28.1450
 30
0.0000
 11
6.7050
 21
27.5100
 31
0.0000
  0
LINE
  8
21
 10
6.7050
 20
27.5100
 30
0.0000
 11
5.4350
 21
27.5100
 31
0.0000
  0
LINE
  8
21
 10
5.4350
 20
27.5100
 30
0.0000
 11
4.8000
 21
28.1450
 31
0.0000
  0
LINE
  8
21
 10
4.8000
 20
31.9550
 30
0.0000
 11
5.4350
 21
32.5900
 31
0.0000
  0
LINE
  8
21
 10
7.3400
 20
31.9550
 30
0.0000
 11
6.7050
 21
32.5900
 31
0.0000
  0
LINE
  8
21
 10
4.8000
 20
28.1450
 30
0.0000
 11
4.8000
 21
31.9550
 31
0.0000
  0
LINE
  8
21
 10
6.7050
 20
32.5900
 30
0.0000
 11
5.4350
 21
32.5900
 31
0.0000
  0
INSERT
  8
51
  2
RECT
 10
28.9300
 20
31.3200
 30
0.0000
 41
0.5080
 42
0.5080
 43
1.0000
 50
180.0000
  0
INSERT
  8
51
  2
RECT
 10
28.9300
 20
28.7800
 30
0.0000
 41
0.5080
 42
0.5080
 43
1.0000
 50
180.0000
  0
INSERT
  8
51
  2
RECT
 10
26.3900
 20
28.7800
 30
0.0000
 41
0.5080
 42
0.5080
 43
1.0000
 50
180.0000
  0
INSERT
  8
51
  2
RECT
 10
26.3900
 20
31.3200
 30
0.0000
 41
0.5080
 42
0.5080
 43
1.0000
 50
180.0000
  0
INSERT
  8
51
  2
RECT
 10
23.8500
 20
28.7800
 30
0.0000
 41
0.5080
 42
0.5080
 43
1.0000
 50
180.0000
  0
INSERT
  8
51
  2
RECT
 10
23.8500
 20
31.3200
 30
0.0000
 41
0.5080
 42
0.5080
 43
1.0000
 50
180.0000
  0
INSERT
  8
51
  2
RECT
 10
21.3100
 20
28.7800
 30
0.0000
 41
0.5080
 42
0.5080
 43
1.0000
 50
180.0000
  0
INSERT
  8
51
  2
RECT
 10
18.7700
 20
28.7800
 30
0.0000
 41
0.5080
 42
0.5080
 43
1.0000
 50
180.0000
  0
INSERT
  8
51
  2
RECT
 10
16.2300
 20
28.7800
 30
0.0000
 41
0.5080
 42
0.5080
 43
1.0000
 50
180.0000
  0
INSERT
  8
51
  2
RECT
 10
21.3100
 20
31.3200
 30
0.0000
 41
0.5080
 42
0.5080
 43
1.0000
 50
180.0000
  0
INSERT
  8
51
  2
RECT
 10
18.7700
 20
31.3200
 30
0.0000
 41
0.5080
 42
0.5080
 43
1.0000
 50
180.0000
  0
INSERT
  8
51
  2
RECT
 10
16.2300
 20
31.3200
 30
0.0000
 41
0.5080
 42
0.5080
 43
1.0000
 50
180.0000
  0
INSERT
  8
51
  2
RECT
 10
13.6900
 20
28.7800
 30
0.0000
 41
0.5080
 42
0.5080
 43
1.0000
 50
180.0000
  0
INSERT
  8
51
  2
RECT
 10
13.6900
 20
31.3200
 30
0.0000
 41
0.5080
 42
0.5080
 43
1.0000
 50
180.0000
  0
INSERT
  8
51
  2
RECT
 10
11.1500
 20
28.7800
 30
0.0000
 41
0.5080
 42
0.5080
 43
1.0000
 50
180.0000
  0
INSERT
  8
51
  2
RECT
 10
11.1500
 20
31.3200
 30
0.0000
 41
0.5080
 42
0.5080
 43
1.0000
 50
180.0000
  0
INSERT
  8
51
  2
RECT
 10
8.6100
 20
28.7800
 30
0.0000
 41
0.5080
 42
0.5080
 43
1.0000
 50
180.0000
  0
INSERT
  8
51
  2
RECT
 10
8.6100
 20
31.3200
 30
0.0000
 41
0.5080
 42
0.5080
 43
1.0000
 50
180.0000
  0
INSERT
  8
51
  2
RECT
 10
6.0700
 20
28.7800
 30
0.0000
 41
0.5080
 42
0.5080
 43
1.0000
 50
180.0000
  0
INSERT
  8
51
  2
RECT
 10
6.0700
 20
31.3200
 30
0.0000
 41
0.5080
 42
0.5080
 43
1.0000
 50
180.0000
  0
INSERT
  8
17
  2
OCTAGONP
 10
28.9300
 20
31.3200
 30
0.0000
 41
1.8796
 42
1.8796
 43
1.0000
 50
180.0000
  0
INSERT
  8
17
  2
OCTAGONP
 10
28.9300
 20
31.3200
 30
0.0000
 41
1.8796
 42
1.8796
 43
1.0000
 50
180.0000
  0
INSERT
  8
17
  2
OCTAGONP
 10
28.9300
 20
28.7800
 30
0.0000
 41
1.8796
 42
1.8796
 43
1.0000
 50
180.0000
  0
INSERT
  8
17
  2
OCTAGONP
 10
28.9300
 20
28.7800
 30
0.0000
 41
1.8796
 42
1.8796
 43
1.0000
 50
180.0000
  0
INSERT
  8
17
  2
OCTAGONP
 10
26.3900
 20
31.3200
 30
0.0000
 41
1.8796
 42
1.8796
 43
1.0000
 50
180.0000
  0
INSERT
  8
17
  2
OCTAGONP
 10
26.3900
 20
31.3200
 30
0.0000
 41
1.8796
 42
1.8796
 43
1.0000
 50
180.0000
  0
INSERT
  8
17
  2
OCTAGONP
 10
26.3900
 20
28.7800
 30
0.0000
 41
1.8796
 42
1.8796
 43
1.0000
 50
180.0000
  0
INSERT
  8
17
  2
OCTAGONP
 10
26.3900
 20
28.7800
 30
0.0000
 41
1.8796
 42
1.8796
 43
1.0000
 50
180.0000
  0
INSERT
  8
17
  2
OCTAGONP
 10
23.8500
 20
31.3200
 30
0.0000
 41
1.8796
 42
1.8796
 43
1.0000
 50
180.0000
  0
INSERT
  8
17
  2
OCTAGONP
 10
23.8500
 20
31.3200
 30
0.0000
 41
1.8796
 42
1.8796
 43
1.0000
 50
180.0000
  0
INSERT
  8
17
  2
OCTAGONP
 10
23.8500
 20
28.7800
 30
0.0000
 41
1.8796
 42
1.8796
 43
1.0000
 50
180.0000
  0
INSERT
  8
17
  2
OCTAGONP
 10
23.8500
 20
28.7800
 30
0.0000
 41
1.8796
 42
1.8796
 43
1.0000
 50
180.0000
  0
INSERT
  8
17
  2
OCTAGONP
 10
21.3100
 20
31.3200
 30
0.0000
 41
1.8796
 42
1.8796
 43
1.0000
 50
180.0000
  0
INSERT
  8
17
  2
OCTAGONP
 10
21.3100
 20
31.3200
 30
0.0000
 41
1.8796
 42
1.8796
 43
1.0000
 50
180.0000
  0
INSERT
  8
17
  2
OCTAGONP
 10
21.3100
 20
28.7800
 30
0.0000
 41
1.8796
 42
1.8796
 43
1.0000
 50
180.0000
  0
INSERT
  8
17
  2
OCTAGONP
 10
21.3100
 20
28.7800
 30
0.0000
 41
1.8796
 42
1.8796
 43
1.0000
 50
180.0000
  0
INSERT
  8
17
  2
OCTAGONP
 10
18.7700
 20
31.3200
 30
0.0000
 41
1.8796
 42
1.8796
 43
1.0000
 50
180.0000
  0
INSERT
  8
17
  2
OCTAGONP
 10
18.7700
 20
31.3200
 30
0.0000
 41
1.8796
 42
1.8796
 43
1.0000
 50
180.0000
  0
INSERT
  8
17
  2
OCTAGONP
 10
18.7700
 20
28.7800
 30
0.0000
 41
1.8796
 42
1.8796
 43
1.0000
 50
180.0000
  0
INSERT
  8
17
  2
OCTAGONP
 10
18.7700
 20
28.7800
 30
0.0000
 41
1.8796
 42
1.8796
 43
1.0000
 50
180.0000
  0
INSERT
  8
17
  2
OCTAGONP
 10
16.2300
 20
31.3200
 30
0.0000
 41
1.8796
 42
1.8796
 43
1.0000
 50
180.0000
  0
INSERT
  8
17
  2
OCTAGONP
 10
16.2300
 20
31.3200
 30
0.0000
 41
1.8796
 42
1.8796
 43
1.0000
 50
180.0000
  0
INSERT
  8
17
  2
OCTAGONP
 10
16.2300
 20
28.7800
 30
0.0000
 41
1.8796
 42
1.8796
 43
1.0000
 50
180.0000
  0
INSERT
  8
17
  2
OCTAGONP
 10
16.2300
 20
28.7800
 30
0.0000
 41
1.8796
 42
1.8796
 43
1.0000
 50
180.0000
  0
INSERT
  8
17
  2
OCTAGONP
 10
13.6900
 20
31.3200
 30
0.0000
 41
1.8796
 42
1.8796
 43
1.0000
 50
180.0000
  0
INSERT
  8
17
  2
OCTAGONP
 10
13.6900
 20
31.3200
 30
0.0000
 41
1.8796
 42
1.8796
 43
1.0000
 50
180.0000
  0
INSERT
  8
17
  2
OCTAGONP
 10
13.6900
 20
28.7800
 30
0.0000
 41
1.8796
 42
1.8796
 43
1.0000
 50
180.0000
  0
INSERT
  8
17
  2
OCTAGONP
 10
13.6900
 20
28.7800
 30
0.0000
 41
1.8796
 42
1.8796
 43
1.0000
 50
180.0000
  0
INSERT
  8
17
  2
OCTAGONP
 10
11.1500
 20
31.3200
 30
0.0000
 41
1.8796
 42
1.8796
 43
1.0000
 50
180.0000
  0
INSERT
  8
17
  2
OCTAGONP
 10
11.1500
 20
31.3200
 30
0.0000
 41
1.8796
 42
1.8796
 43
1.0000
 50
180.0000
  0
INSERT
  8
17
  2
OCTAGONP
 10
11.1500
 20
28.7800
 30
0.0000
 41
1.8796
 42
1.8796
 43
1.0000
 50
180.0000
  0
INSERT
  8
17
  2
OCTAGONP
 10
11.1500
 20
28.7800
 30
0.0000
 41
1.8796
 42
1.8796
 43
1.0000
 50
180.0000
  0
INSERT
  8
17
  2
OCTAGONP
 10
8.6100
 20
31.3200
 30
0.0000
 41
1.8796
 42
1.8796
 43
1.0000
 50
180.0000
  0
INSERT
  8
17
  2
OCTAGONP
 10
8.6100
 20
31.3200
 30
0.0000
 41
1.8796
 42
1.8796
 43
1.0000
 50
180.0000
  0
INSERT
  8
17
  2
OCTAGONP
 10
8.6100
 20
28.7800
 30
0.0000
 41
1.8796
 42
1.8796
 43
1.0000
 50
180.0000
  0
INSERT
  8
17
  2
OCTAGONP
 10
8.6100
 20
28.7800
 30
0.0000
 41
1.8796
 42
1.8796
 43
1.0000
 50
180.0000
  0
INSERT
  8
17
  2
OCTAGONP
 10
6.0700
 20
31.3200
 30
0.0000
 41
1.8796
 42
1.8796
 43
1.0000
 50
180.0000
  0
INSERT
  8
17
  2
OCTAGONP
 10
6.0700
 20
31.3200
 30
0.0000
 41
1.8796
 42
1.8796
 43
1.0000
 50
180.0000
  0
INSERT
  8
17
  2
OCTAGONP
 10
6.0700
 20
28.7800
 30
0.0000
 41
1.8796
 42
1.8796
 43
1.0000
 50
180.0000
  0
INSERT
  8
17
  2
OCTAGONP
 10
6.0700
 20
28.7800
 30
0.0000
 41
1.8796
 42
1.8796
 43
1.0000
 50
180.0000
  0
LINE
  8
25
 10
31.6640
 20
27.7881
 30
0.0000
 11
31.7869
 21
27.9110
 31
0.0000
  0
LINE
  8
25
 10
31.7869
 20
27.9110
 30
0.0000
 11
31.7869
 21
28.0338
 31
0.0000
  0
LINE
  8
25
 10
31.7869
 20
28.0338
 30
0.0000
 11
31.6640
 21
28.1567
 31
0.0000
  0
LINE
  8
25
 10
31.6640
 20
28.1567
 30
0.0000
 11
31.0497
 21
28.1567
 31
0.0000
  0
LINE
  8
25
 10
31.0497
 20
28.0338
 30
0.0000
 11
31.0497
 21
28.2796
 31
0.0000
  0
LINE
  8
25
 10
31.7869
 20
28.7823
 30
0.0000
 11
31.0497
 21
28.7823
 31
0.0000
  0
LINE
  8
25
 10
31.0497
 20
28.5365
 30
0.0000
 11
31.0497
 21
29.0280
 31
0.0000
  0
LINE
  8
25
 10
31.7869
 20
29.2849
 30
0.0000
 11
31.2954
 21
29.2849
 31
0.0000
  0
LINE
  8
25
 10
31.2954
 20
29.2849
 30
0.0000
 11
31.0497
 21
29.5307
 31
0.0000
  0
LINE
  8
25
 10
31.0497
 20
29.5307
 30
0.0000
 11
31.2954
 21
29.7764
 31
0.0000
  0
LINE
  8
25
 10
31.2954
 20
29.7764
 30
0.0000
 11
31.7869
 21
29.7764
 31
0.0000
  0
LINE
  8
25
 10
31.4183
 20
29.2849
 30
0.0000
 11
31.4183
 21
29.7764
 31
0.0000
  0
LINE
  8
25
 10
31.1725
 20
30.5248
 30
0.0000
 11
31.0497
 21
30.4020
 31
0.0000
  0
LINE
  8
25
 10
31.0497
 20
30.4020
 30
0.0000
 11
31.0497
 21
30.1562
 31
0.0000
  0
LINE
  8
25
 10
31.0497
 20
30.1562
 30
0.0000
 11
31.1725
 21
30.0333
 31
0.0000
  0
LINE
  8
25
 10
31.1725
 20
30.0333
 30
0.0000
 11
31.6640
 21
30.0333
 31
0.0000
  0
LINE
  8
25
 10
31.6640
 20
30.0333
 30
0.0000
 11
31.7869
 21
30.1562
 31
0.0000
  0
LINE
  8
25
 10
31.7869
 20
30.1562
 30
0.0000
 11
31.7869
 21
30.4020
 31
0.0000
  0
LINE
  8
25
 10
31.7869
 20
30.4020
 30
0.0000
 11
31.6640
 21
30.5248
 31
0.0000
  0
LINE
  8
25
 10
31.6640
 20
30.5248
 30
0.0000
 11
31.4183
 21
30.5248
 31
0.0000
  0
LINE
  8
25
 10
31.4183
 20
30.5248
 30
0.0000
 11
31.4183
 21
30.2791
 31
0.0000
  0
LINE
  8
25
 10
31.7869
 20
31.2732
 30
0.0000
 11
31.7869
 21
30.7818
 31
0.0000
  0
LINE
  8
25
 10
31.7869
 20
30.7818
 30
0.0000
 11
31.2954
 21
31.2732
 31
0.0000
  0
LINE
  8
25
 10
31.2954
 20
31.2732
 30
0.0000
 11
31.1725
 21
31.2732
 31
0.0000
  0
LINE
  8
25
 10
31.1725
 20
31.2732
 30
0.0000
 11
31.0497
 21
31.1504
 31
0.0000
  0
LINE
  8
25
 10
31.0497
 20
31.1504
 30
0.0000
 11
31.0497
 21
30.9046
 31
0.0000
  0
LINE
  8
25
 10
31.0497
 20
30.9046
 30
0.0000
 11
31.1725
 21
30.7818
 31
0.0000
  0
LINE
  8
25
 10
31.6640
 20
31.5302
 30
0.0000
 11
31.1725
 21
31.5302
 31
0.0000
  0
LINE
  8
25
 10
31.1725
 20
31.5302
 30
0.0000
 11
31.0497
 21
31.6530
 31
0.0000
  0
LINE
  8
25
 10
31.0497
 20
31.6530
 30
0.0000
 11
31.0497
 21
31.8988
 31
0.0000
  0
LINE
  8
25
 10
31.0497
 20
31.8988
 30
0.0000
 11
31.1725
 21
32.0217
 31
0.0000
  0
LINE
  8
25
 10
31.1725
 20
32.0217
 30
0.0000
 11
31.6640
 21
32.0217
 31
0.0000
  0
LINE
  8
25
 10
31.6640
 20
32.0217
 30
0.0000
 11
31.7869
 21
31.8988
 31
0.0000
  0
LINE
  8
25
 10
31.7869
 20
31.8988
 30
0.0000
 11
31.7869
 21
31.6530
 31
0.0000
  0
LINE
  8
25
 10
31.7869
 20
31.6530
 30
0.0000
 11
31.6640
 21
31.5302
 31
0.0000
  0
LINE
  8
25
 10
31.6640
 20
31.5302
 30
0.0000
 11
31.1725
 21
32.0217
 31
0.0000
  0
POINT
  8
23
 10
11.0000
 20
10.5000
 30
0.0000
  0
LINE
  8
21
 10
12.2700
 20
11.1350
 30
0.0000
 11
11.6350
 21
11.7700
 31
0.0000
  0
LINE
  8
21
 10
11.6350
 20
11.7700
 30
0.0000
 11
10.3650
 21
11.7700
 31
0.0000
  0
LINE
  8
21
 10
10.3650
 20
11.7700
 30
0.0000
 11
9.7300
 21
11.1350
 31
0.0000
  0
LINE
  8
21
 10
9.7300
 20
11.1350
 30
0.0000
 11
9.7300
 21
9.8650
 31
0.0000
  0
LINE
  8
21
 10
9.7300
 20
9.8650
 30
0.0000
 11
10.3650
 21
9.2300
 31
0.0000
  0
LINE
  8
21
 10
10.3650
 20
9.2300
 30
0.0000
 11
11.6350
 21
9.2300
 31
0.0000
  0
LINE
  8
21
 10
11.6350
 20
9.2300
 30
0.0000
 11
12.2700
 21
9.8650
 31
0.0000
  0
LINE
  8
21
 10
12.2700
 20
9.8650
 30
0.0000
 11
12.2700
 21
11.1350
 31
0.0000
  0
INSERT
  8
51
  2
RECT
 10
11.0000
 20
10.5000
 30
0.0000
 41
0.5080
 42
0.5080
 43
1.0000
 50
0.0000
  0
INSERT
  8
17
  2
ROUNDP
 10
11.0000
 20
10.5000
 30
0.0000
 41
1.8796
 42
1.8796
 43
1.0000
 50
90.0000
  0
INSERT
  8
17
  2
ROUNDP
 10
11.0000
 20
10.5000
 30
0.0000
 41
1.8796
 42
1.8796
 43
1.0000
 50
90.0000
  0
LINE
  8
25
 10
12.7319
 20
9.9898
 30
0.0000
 11
12.8548
 21
9.8669
 31
0.0000
  0
LINE
  8
25
 10
12.8548
 20
9.8669
 30
0.0000
 11
12.9776
 21
9.8669
 31
0.0000
  0
LINE
  8
25
 10
12.9776
 20
9.8669
 30
0.0000
 11
13.1005
 21
9.9898
 31
0.0000
  0
LINE
  8
25
 10
13.1005
 20
9.9898
 30
0.0000
 11
13.1005
 21
10.6041
 31
0.0000
  0
LINE
  8
25
 10
12.9776
 20
10.6041
 30
0.0000
 11
13.2234
 21
10.6041
 31
0.0000
  0
LINE
  8
25
 10
13.7261
 20
9.8669
 30
0.0000
 11
13.7261
 21
10.6041
 31
0.0000
  0
LINE
  8
25
 10
13.4803
 20
10.6041
 30
0.0000
 11
13.9718
 21
10.6041
 31
0.0000
  0
LINE
  8
25
 10
14.2287
 20
9.8669
 30
0.0000
 11
14.2287
 21
10.3584
 31
0.0000
  0
LINE
  8
25
 10
14.2287
 20
10.3584
 30
0.0000
 11
14.4745
 21
10.6041
 31
0.0000
  0
LINE
  8
25
 10
14.4745
 20
10.6041
 30
0.0000
 11
14.7202
 21
10.3584
 31
0.0000
  0
LINE
  8
25
 10
14.7202
 20
10.3584
 30
0.0000
 11
14.7202
 21
9.8669
 31
0.0000
  0
LINE
  8
25
 10
14.2287
 20
10.2355
 30
0.0000
 11
14.7202
 21
10.2355
 31
0.0000
  0
LINE
  8
25
 10
15.4686
 20
10.4813
 30
0.0000
 11
15.3458
 21
10.6041
 31
0.0000
  0
LINE
  8
25
 10
15.3458
 20
10.6041
 30
0.0000
 11
15.1000
 21
10.6041
 31
0.0000
  0
LINE
  8
25
 10
15.1000
 20
10.6041
 30
0.0000
 11
14.9771
 21
10.4813
 31
0.0000
  0
LINE
  8
25
 10
14.9771
 20
10.4813
 30
0.0000
 11
14.9771
 21
9.9898
 31
0.0000
  0
LINE
  8
25
 10
14.9771
 20
9.9898
 30
0.0000
 11
15.1000
 21
9.8669
 31
0.0000
  0
LINE
  8
25
 10
15.1000
 20
9.8669
 30
0.0000
 11
15.3458
 21
9.8669
 31
0.0000
  0
LINE
  8
25
 10
15.3458
 20
9.8669
 30
0.0000
 11
15.4686
 21
9.9898
 31
0.0000
  0
LINE
  8
25
 10
15.4686
 20
9.9898
 30
0.0000
 11
15.4686
 21
10.2355
 31
0.0000
  0
LINE
  8
25
 10
15.4686
 20
10.2355
 30
0.0000
 11
15.2229
 21
10.2355
 31
0.0000
  0
LINE
  8
25
 10
16.2170
 20
9.8669
 30
0.0000
 11
15.7256
 21
9.8669
 31
0.0000
  0
LINE
  8
25
 10
15.7256
 20
9.8669
 30
0.0000
 11
16.2170
 21
10.3584
 31
0.0000
  0
LINE
  8
25
 10
16.2170
 20
10.3584
 30
0.0000
 11
16.2170
 21
10.4813
 31
0.0000
  0
LINE
  8
25
 10
16.2170
 20
10.4813
 30
0.0000
 11
16.0942
 21
10.6041
 31
0.0000
  0
LINE
  8
25
 10
16.0942
 20
10.6041
 30
0.0000
 11
15.8484
 21
10.6041
 31
0.0000
  0
LINE
  8
25
 10
15.8484
 20
10.6041
 30
0.0000
 11
15.7256
 21
10.4813
 31
0.0000
  0
LINE
  8
25
 10
16.4740
 20
9.9898
 30
0.0000
 11
16.4740
 21
10.4813
 31
0.0000
  0
LINE
  8
25
 10
16.4740
 20
10.4813
 30
0.0000
 11
16.5968
 21
10.6041
 31
0.0000
  0
LINE
  8
25
 10
16.5968
 20
10.6041
 30
0.0000
 11
16.8426
 21
10.6041
 31
0.0000
  0
LINE
  8
25
 10
16.8426
 20
10.6041
 30
0.0000
 11
16.9655
 21
10.4813
 31
0.0000
  0
LINE
  8
25
 10
16.9655
 20
10.4813
 30
0.0000
 11
16.9655
 21
9.9898
 31
0.0000
  0
LINE
  8
25
 10
16.9655
 20
9.9898
 30
0.0000
 11
16.8426
 21
9.8669
 31
0.0000
  0
LINE
  8
25
 10
16.8426
 20
9.8669
 30
0.0000
 11
16.5968
 21
9.8669
 31
0.0000
  0
LINE
  8
25
 10
16.5968
 20
9.8669
 30
0.0000
 11
16.4740
 21
9.9898
 31
0.0000
  0
LINE
  8
25
 10
16.4740
 20
9.9898
 30
0.0000
 11
16.9655
 21
10.4813
 31
0.0000
  0
LINE
  8
25
 10
17.2224
 20
10.2355
 30
0.0000
 11
17.7139
 21
10.2355
 31
0.0000
  0
LINE
  8
25
 10
17.9708
 20
10.3584
 30
0.0000
 11
18.2166
 21
10.6041
 31
0.0000
  0
LINE
  8
25
 10
18.2166
 20
10.6041
 30
0.0000
 11
18.2166
 21
9.8669
 31
0.0000
  0
LINE
  8
25
 10
17.9708
 20
9.8669
 30
0.0000
 11
18.4623
 21
9.8669
 31
0.0000
  0
LINE
  8
25
 10
18.7192
 20
10.3584
 30
0.0000
 11
18.9650
 21
10.6041
 31
0.0000
  0
LINE
  8
25
 10
18.9650
 20
10.6041
 30
0.0000
 11
18.9650
 21
9.8669
 31
0.0000
  0
LINE
  8
25
 10
18.7192
 20
9.8669
 30
0.0000
 11
19.2107
 21
9.8669
 31
0.0000
  0
POINT
  8
23
 10
11.0000
 20
5.5000
 30
0.0000
  0
LINE
  8
21
 10
12.2700
 20
6.1350
 30
0.0000
 11
11.6350
 21
6.7700
 31
0.0000
  0
LINE
  8
21
 10
11.6350
 20
6.7700
 30
0.0000
 11
10.3650
 21
6.7700
 31
0.0000
  0
LINE
  8
21
 10
10.3650
 20
6.7700
 30
0.0000
 11
9.7300
 21
6.1350
 31
0.0000
  0
LINE
  8
21
 10
9.7300
 20
6.1350
 30
0.0000
 11
9.7300
 21
4.8650
 31
0.0000
  0
LINE
  8
21
 10
9.7300
 20
4.8650
 30
0.0000
 11
10.3650
 21
4.2300
 31
0.0000
  0
LINE
  8
21
 10
10.3650
 20
4.2300
 30
0.0000
 11
11.6350
 21
4.2300
 31
0.0000
  0
LINE
  8
21
 10
11.6350
 20
4.2300
 30
0.0000
 11
12.2700
 21
4.8650
 31
0.0000
  0
LINE
  8
21
 10
12.2700
 20
4.8650
 30
0.0000
 11
12.2700
 21
6.1350
 31
0.0000
  0
INSERT
  8
51
  2
RECT
 10
11.0000
 20
5.5000
 30
0.0000
 41
0.5080
 42
0.5080
 43
1.0000
 50
0.0000
  0
INSERT
  8
17
  2
ROUNDP
 10
11.0000
 20
5.5000
 30
0.0000
 41
1.8796
 42
1.8796
 43
1.0000
 50
90.0000
  0
INSERT
  8
17
  2
ROUNDP
 10
11.0000
 20
5.5000
 30
0.0000
 41
1.8796
 42
1.8796
 43
1.0000
 50
90.0000
  0
LINE
  8
25
 10
12.7319
 20
4.9898
 30
0.0000
 11
12.8548
 21
4.8669
 31
0.0000
  0
LINE
  8
25
 10
12.8548
 20
4.8669
 30
0.0000
 11
12.9776
 21
4.8669
 31
0.0000
  0
LINE
  8
25
 10
12.9776
 20
4.8669
 30
0.0000
 11
13.1005
 21
4.9898
 31
0.0000
  0
LINE
  8
25
 10
13.1005
 20
4.9898
 30
0.0000
 11
13.1005
 21
5.6041
 31
0.0000
  0
LINE
  8
25
 10
12.9776
 20
5.6041
 30
0.0000
 11
13.2234
 21
5.6041
 31
0.0000
  0
LINE
  8
25
 10
13.7261
 20
4.8669
 30
0.0000
 11
13.7261
 21
5.6041
 31
0.0000
  0
LINE
  8
25
 10
13.4803
 20
5.6041
 30
0.0000
 11
13.9718
 21
5.6041
 31
0.0000
  0
LINE
  8
25
 10
14.2287
 20
4.8669
 30
0.0000
 11
14.2287
 21
5.3584
 31
0.0000
  0
LINE
  8
25
 10
14.2287
 20
5.3584
 30
0.0000
 11
14.4745
 21
5.6041
 31
0.0000
  0
LINE
  8
25
 10
14.4745
 20
5.6041
 30
0.0000
 11
14.7202
 21
5.3584
 31
0.0000
  0
LINE
  8
25
 10
14.7202
 20
5.3584
 30
0.0000
 11
14.7202
 21
4.8669
 31
0.0000
  0
LINE
  8
25
 10
14.2287
 20
5.2355
 30
0.0000
 11
14.7202
 21
5.2355
 31
0.0000
  0
LINE
  8
25
 10
15.4686
 20
5.4813
 30
0.0000
 11
15.3458
 21
5.6041
 31
0.0000
  0
LINE
  8
25
 10
15.3458
 20
5.6041
 30
0.0000
 11
15.1000
 21
5.6041
 31
0.0000
  0
LINE
  8
25
 10
15.1000
 20
5.6041
 30
0.0000
 11
14.9771
 21
5.4813
 31
0.0000
  0
LINE
  8
25
 10
14.9771
 20
5.4813
 30
0.0000
 11
14.9771
 21
4.9898
 31
0.0000
  0
LINE
  8
25
 10
14.9771
 20
4.9898
 30
0.0000
 11
15.1000
 21
4.8669
 31
0.0000
  0
LINE
  8
25
 10
15.1000
 20
4.8669
 30
0.0000
 11
15.3458
 21
4.8669
 31
0.0000
  0
LINE
  8
25
 10
15.3458
 20
4.8669
 30
0.0000
 11
15.4686
 21
4.9898
 31
0.0000
  0
LINE
  8
25
 10
15.4686
 20
4.9898
 30
0.0000
 11
15.4686
 21
5.2355
 31
0.0000
  0
LINE
  8
25
 10
15.4686
 20
5.2355
 30
0.0000
 11
15.2229
 21
5.2355
 31
0.0000
  0
LINE
  8
25
 10
16.2170
 20
4.8669
 30
0.0000
 11
15.7256
 21
4.8669
 31
0.0000
  0
LINE
  8
25
 10
15.7256
 20
4.8669
 30
0.0000
 11
16.2170
 21
5.3584
 31
0.0000
  0
LINE
  8
25
 10
16.2170
 20
5.3584
 30
0.0000
 11
16.2170
 21
5.4813
 31
0.0000
  0
LINE
  8
25
 10
16.2170
 20
5.4813
 30
0.0000
 11
16.0942
 21
5.6041
 31
0.0000
  0
LINE
  8
25
 10
16.0942
 20
5.6041
 30
0.0000
 11
15.8484
 21
5.6041
 31
0.0000
  0
LINE
  8
25
 10
15.8484
 20
5.6041
 30
0.0000
 11
15.7256
 21
5.4813
 31
0.0000
  0
LINE
  8
25
 10
16.4740
 20
4.9898
 30
0.0000
 11
16.4740
 21
5.4813
 31
0.0000
  0
LINE
  8
25
 10
16.4740
 20
5.4813
 30
0.0000
 11
16.5968
 21
5.6041
 31
0.0000
  0
LINE
  8
25
 10
16.5968
 20
5.6041
 30
0.0000
 11
16.8426
 21
5.6041
 31
0.0000
  0
LINE
  8
25
 10
16.8426
 20
5.6041
 30
0.0000
 11
16.9655
 21
5.4813
 31
0.0000
  0
LINE
  8
25
 10
16.9655
 20
5.4813
 30
0.0000
 11
16.9655
 21
4.9898
 31
0.0000
  0
LINE
  8
25
 10
16.9655
 20
4.9898
 30
0.0000
 11
16.8426
 21
4.8669
 31
0.0000
  0
LINE
  8
25
 10
16.8426
 20
4.8669
 30
0.0000
 11
16.5968
 21
4.8669
 31
0.0000
  0
LINE
  8
25
 10
16.5968
 20
4.8669
 30
0.0000
 11
16.4740
 21
4.9898
 31
0.0000
  0
LINE
  8
25
 10
16.4740
 20
4.9898
 30
0.0000
 11
16.9655
 21
5.4813
 31
0.0000
  0
LINE
  8
25
 10
17.2224
 20
5.2355
 30
0.0000
 11
17.7139
 21
5.2355
 31
0.0000
  0
LINE
  8
25
 10
17.9708
 20
5.3584
 30
0.0000
 11
18.2166
 21
5.6041
 31
0.0000
  0
LINE
  8
25
 10
18.2166
 20
5.6041
 30
0.0000
 11
18.2166
 21
4.8669
 31
0.0000
  0
LINE
  8
25
 10
17.9708
 20
4.8669
 30
0.0000
 11
18.4623
 21
4.8669
 31
0.0000
  0
LINE
  8
25
 10
18.7192
 20
4.9898
 30
0.0000
 11
18.8421
 21
4.8669
 31
0.0000
  0
LINE
  8
25
 10
18.8421
 20
4.8669
 30
0.0000
 11
19.0878
 21
4.8669
 31
0.0000
  0
LINE
  8
25
 10
19.0878
 20
4.8669
 30
0.0000
 11
19.2107
 21
4.9898
 31
0.0000
  0
LINE
  8
25
 10
19.2107
 20
4.9898
 30
0.0000
 11
19.2107
 21
5.4813
 31
0.0000
  0
LINE
  8
25
 10
19.2107
 20
5.4813
 30
0.0000
 11
19.0878
 21
5.6041
 31
0.0000
  0
LINE
  8
25
 10
19.0878
 20
5.6041
 30
0.0000
 11
18.8421
 21
5.6041
 31
0.0000
  0
LINE
  8
25
 10
18.8421
 20
5.6041
 30
0.0000
 11
18.7192
 21
5.4813
 31
0.0000
  0
LINE
  8
25
 10
18.7192
 20
5.4813
 30
0.0000
 11
18.7192
 21
5.3584
 31
0.0000
  0
LINE
  8
25
 10
18.7192
 20
5.3584
 30
0.0000
 11
18.8421
 21
5.2355
 31
0.0000
  0
LINE
  8
25
 10
18.8421
 20
5.2355
 30
0.0000
 11
19.2107
 21
5.2355
 31
0.0000
  0
POINT
  8
23
 10
11.0000
 20
8.0000
 30
0.0000
  0
LINE
  8
21
 10
12.2700
 20
8.6350
 30
0.0000
 11
11.6350
 21
9.2700
 31
0.0000
  0
LINE
  8
21
 10
11.6350
 20
9.2700
 30
0.0000
 11
10.3650
 21
9.2700
 31
0.0000
  0
LINE
  8
21
 10
10.3650
 20
9.2700
 30
0.0000
 11
9.7300
 21
8.6350
 31
0.0000
  0
LINE
  8
21
 10
9.7300
 20
8.6350
 30
0.0000
 11
9.7300
 21
7.3650
 31
0.0000
  0
LINE
  8
21
 10
9.7300
 20
7.3650
 30
0.0000
 11
10.3650
 21
6.7300
 31
0.0000
  0
LINE
  8
21
 10
10.3650
 20
6.7300
 30
0.0000
 11
11.6350
 21
6.7300
 31
0.0000
  0
LINE
  8
21
 10
11.6350
 20
6.7300
 30
0.0000
 11
12.2700
 21
7.3650
 31
0.0000
  0
LINE
  8
21
 10
12.2700
 20
7.3650
 30
0.0000
 11
12.2700
 21
8.6350
 31
0.0000
  0
INSERT
  8
51
  2
RECT
 10
11.0000
 20
8.0000
 30
0.0000
 41
0.5080
 42
0.5080
 43
1.0000
 50
0.0000
  0
INSERT
  8
17
  2
ROUNDP
 10
11.0000
 20
8.0000
 30
0.0000
 41
1.8796
 42
1.8796
 43
1.0000
 50
90.0000
  0
INSERT
  8
17
  2
ROUNDP
 10
11.0000
 20
8.0000
 30
0.0000
 41
1.8796
 42
1.8796
 43
1.0000
 50
90.0000
  0
LINE
  8
25
 10
12.7319
 20
7.4898
 30
0.0000
 11
12.8548
 21
7.3669
 31
0.0000
  0
LINE
  8
25
 10
12.8548
 20
7.3669
 30
0.0000
 11
12.9776
 21
7.3669
 31
0.0000
  0
LINE
  8
25
 10
12.9776
 20
7.3669
 30
0.0000
 11
13.1005
 21
7.4898
 31
0.0000
  0
LINE
  8
25
 10
13.1005
 20
7.4898
 30
0.0000
 11
13.1005
 21
8.1041
 31
0.0000
  0
LINE
  8
25
 10
12.9776
 20
8.1041
 30
0.0000
 11
13.2234
 21
8.1041
 31
0.0000
  0
LINE
  8
25
 10
13.7261
 20
7.3669
 30
0.0000
 11
13.7261
 21
8.1041
 31
0.0000
  0
LINE
  8
25
 10
13.4803
 20
8.1041
 30
0.0000
 11
13.9718
 21
8.1041
 31
0.0000
  0
LINE
  8
25
 10
14.7202
 20
7.9813
 30
0.0000
 11
14.5973
 21
8.1041
 31
0.0000
  0
LINE
  8
25
 10
14.5973
 20
8.1041
 30
0.0000
 11
14.3516
 21
8.1041
 31
0.0000
  0
LINE
  8
25
 10
14.3516
 20
8.1041
 30
0.0000
 11
14.2287
 21
7.9813
 31
0.0000
  0
LINE
  8
25
 10
14.2287
 20
7.9813
 30
0.0000
 11
14.2287
 21
7.4898
 31
0.0000
  0
LINE
  8
25
 10
14.2287
 20
7.4898
 30
0.0000
 11
14.3516
 21
7.3669
 31
0.0000
  0
LINE
  8
25
 10
14.3516
 20
7.3669
 30
0.0000
 11
14.5973
 21
7.3669
 31
0.0000
  0
LINE
  8
25
 10
14.5973
 20
7.3669
 30
0.0000
 11
14.7202
 21
7.4898
 31
0.0000
  0
LINE
  8
25
 10
14.9771
 20
8.1041
 30
0.0000
 11
14.9771
 21
7.3669
 31
0.0000
  0
LINE
  8
25
 10
14.9771
 20
7.6126
 30
0.0000
 11
15.4686
 21
8.1041
 31
0.0000
  0
LINE
  8
25
 10
15.1000
 20
7.7355
 30
0.0000
 11
15.4686
 21
7.3669
 31
0.0000
  0
POINT
  8
23
 10
11.0000
 20
20.5000
 30
0.0000
  0
LINE
  8
21
 10
12.2700
 20
21.1350
 30
0.0000
 11
11.6350
 21
21.7700
 31
0.0000
  0
LINE
  8
21
 10
11.6350
 20
21.7700
 30
0.0000
 11
10.3650
 21
21.7700
 31
0.0000
  0
LINE
  8
21
 10
10.3650
 20
21.7700
 30
0.0000
 11
9.7300
 21
21.1350
 31
0.0000
  0
LINE
  8
21
 10
9.7300
 20
21.1350
 30
0.0000
 11
9.7300
 21
19.8650
 31
0.0000
  0
LINE
  8
21
 10
9.7300
 20
19.8650
 30
0.0000
 11
10.3650
 21
19.2300
 31
0.0000
  0
LINE
  8
21
 10
10.3650
 20
19.2300
 30
0.0000
 11
11.6350
 21
19.2300
 31
0.0000
  0
LINE
  8
21
 10
11.6350
 20
19.2300
 30
0.0000
 11
12.2700
 21
19.8650
 31
0.0000
  0
LINE
  8
21
 10
12.2700
 20
19.8650
 30
0.0000
 11
12.2700
 21
21.1350
 31
0.0000
  0
INSERT
  8
51
  2
RECT
 10
11.0000
 20
20.5000
 30
0.0000
 41
0.5080
 42
0.5080
 43
1.0000
 50
0.0000
  0
INSERT
  8
17
  2
ROUNDP
 10
11.0000
 20
20.5000
 30
0.0000
 41
1.8796
 42
1.8796
 43
1.0000
 50
90.0000
  0
INSERT
  8
17
  2
ROUNDP
 10
11.0000
 20
20.5000
 30
0.0000
 41
1.8796
 42
1.8796
 43
1.0000
 50
90.0000
  0
LINE
  8
25
 10
12.7319
 20
19.8669
 30
0.0000
 11
12.7319
 21
20.6041
 31
0.0000
  0
LINE
  8
25
 10
12.7319
 20
20.6041
 30
0.0000
 11
13.1005
 21
20.6041
 31
0.0000
  0
LINE
  8
25
 10
13.1005
 20
20.6041
 30
0.0000
 11
13.2234
 21
20.4813
 31
0.0000
  0
LINE
  8
25
 10
13.2234
 20
20.4813
 30
0.0000
 11
13.2234
 21
20.2355
 31
0.0000
  0
LINE
  8
25
 10
13.2234
 20
20.2355
 30
0.0000
 11
13.1005
 21
20.1126
 31
0.0000
  0
LINE
  8
25
 10
13.1005
 20
20.1126
 30
0.0000
 11
12.7319
 21
20.1126
 31
0.0000
  0
LINE
  8
25
 10
12.9776
 20
20.1126
 30
0.0000
 11
13.2234
 21
19.8669
 31
0.0000
  0
LINE
  8
25
 10
13.9718
 20
20.4813
 30
0.0000
 11
13.8489
 21
20.6041
 31
0.0000
  0
LINE
  8
25
 10
13.8489
 20
20.6041
 30
0.0000
 11
13.6032
 21
20.6041
 31
0.0000
  0
LINE
  8
25
 10
13.6032
 20
20.6041
 30
0.0000
 11
13.4803
 21
20.4813
 31
0.0000
  0
LINE
  8
25
 10
13.4803
 20
20.4813
 30
0.0000
 11
13.4803
 21
20.3584
 31
0.0000
  0
LINE
  8
25
 10
13.4803
 20
20.3584
 30
0.0000
 11
13.6032
 21
20.2355
 31
0.0000
  0
LINE
  8
25
 10
13.6032
 20
20.2355
 30
0.0000
 11
13.8489
 21
20.2355
 31
0.0000
  0
LINE
  8
25
 10
13.8489
 20
20.2355
 30
0.0000
 11
13.9718
 21
20.1126
 31
0.0000
  0
LINE
  8
25
 10
13.9718
 20
20.1126
 30
0.0000
 11
13.9718
 21
19.9898
 31
0.0000
  0
LINE
  8
25
 10
13.9718
 20
19.9898
 30
0.0000
 11
13.8489
 21
19.8669
 31
0.0000
  0
LINE
  8
25
 10
13.8489
 20
19.8669
 30
0.0000
 11
13.6032
 21
19.8669
 31
0.0000
  0
LINE
  8
25
 10
13.6032
 20
19.8669
 30
0.0000
 11
13.4803
 21
19.9898
 31
0.0000
  0
LINE
  8
25
 10
14.4745
 20
19.8669
 30
0.0000
 11
14.4745
 21
20.6041
 31
0.0000
  0
LINE
  8
25
 10
14.2287
 20
20.6041
 30
0.0000
 11
14.7202
 21
20.6041
 31
0.0000
  0
LINE
  8
25
 10
14.9771
 20
19.8669
 30
0.0000
 11
14.9771
 21
20.6041
 31
0.0000
  0
LINE
  8
25
 10
14.9771
 20
20.6041
 30
0.0000
 11
15.4686
 21
19.8669
 31
0.0000
  0
LINE
  8
25
 10
15.4686
 20
19.8669
 30
0.0000
 11
15.4686
 21
20.6041
 31
0.0000
  0
POINT
  8
23
 10
5.0000
 20
12.0000
 30
0.0000
  0
LINE
  8
21
 10
5.9209
 20
9.7769
 30
0.0000
 11
6.1018
 21
9.8608
 31
0.0000
  0
LINE
  8
21
 10
6.1018
 20
9.8608
 30
0.0000
 11
6.2751
 21
9.9593
 31
0.0000
  0
LINE
  8
21
 10
6.2751
 20
9.9593
 30
0.0000
 11
7.1548
 21
9.2420
 31
0.0000
  0
LINE
  8
21
 10
7.1548
 20
9.2420
 30
0.0000
 11
7.7580
 21
9.8452
 31
0.0000
  0
LINE
  8
21
 10
7.7580
 20
9.8452
 30
0.0000
 11
7.0407
 21
10.7249
 31
0.0000
  0
LINE
  8
21
 10
7.0407
 20
10.7249
 30
0.0000
 11
7.1689
 21
10.9578
 31
0.0000
  0
LINE
  8
21
 10
7.1689
 20
10.9578
 30
0.0000
 11
7.2706
 21
11.2034
 31
0.0000
  0
LINE
  8
21
 10
7.2706
 20
11.2034
 30
0.0000
 11
7.3446
 21
11.4587
 31
0.0000
  0
LINE
  8
21
 10
7.3446
 20
11.4587
 30
0.0000
 11
8.4739
 21
11.5735
 31
0.0000
  0
LINE
  8
21
 10
8.4739
 20
11.5735
 30
0.0000
 11
8.4739
 21
12.4265
 31
0.0000
  0
LINE
  8
21
 10
8.4739
 20
12.4265
 30
0.0000
 11
7.3446
 21
12.5413
 31
0.0000
  0
LINE
  8
21
 10
7.3446
 20
12.5413
 30
0.0000
 11
7.2706
 21
12.7966
 31
0.0000
  0
LINE
  8
21
 10
7.2706
 20
12.7966
 30
0.0000
 11
7.1689
 21
13.0422
 31
0.0000
  0
LINE
  8
21
 10
7.1689
 20
13.0422
 30
0.0000
 11
7.0407
 21
13.2751
 31
0.0000
  0
LINE
  8
21
 10
7.0407
 20
13.2751
 30
0.0000
 11
7.7580
 21
14.1548
 31
0.0000
  0
LINE
  8
21
 10
7.7580
 20
14.1548
 30
0.0000
 11
7.1548
 21
14.7580
 31
0.0000
  0
LINE
  8
21
 10
7.1548
 20
14.7580
 30
0.0000
 11
6.2751
 21
14.0407
 31
0.0000
  0
LINE
  8
21
 10
6.2751
 20
14.0407
 30
0.0000
 11
6.0422
 21
14.1689
 31
0.0000
  0
LINE
  8
21
 10
6.0422
 20
14.1689
 30
0.0000
 11
5.7966
 21
14.2706
 31
0.0000
  0
LINE
  8
21
 10
5.7966
 20
14.2706
 30
0.0000
 11
5.5413
 21
14.3446
 31
0.0000
  0
LINE
  8
21
 10
5.5413
 20
14.3446
 30
0.0000
 11
5.4265
 21
15.4739
 31
0.0000
  0
LINE
  8
21
 10
5.4265
 20
15.4739
 30
0.0000
 11
4.5735
 21
15.4739
 31
0.0000
  0
LINE
  8
21
 10
4.5735
 20
15.4739
 30
0.0000
 11
4.4587
 21
14.3446
 31
0.0000
  0
LINE
  8
21
 10
4.4587
 20
14.3446
 30
0.0000
 11
4.2034
 21
14.2706
 31
0.0000
  0
LINE
  8
21
 10
4.2034
 20
14.2706
 30
0.0000
 11
3.9578
 21
14.1689
 31
0.0000
  0
LINE
  8
21
 10
3.9578
 20
14.1689
 30
0.0000
 11
3.7249
 21
14.0407
 31
0.0000
  0
LINE
  8
21
 10
3.7249
 20
14.0407
 30
0.0000
 11
2.8452
 21
14.7580
 31
0.0000
  0
LINE
  8
21
 10
2.8452
 20
14.7580
 30
0.0000
 11
2.2420
 21
14.1548
 31
0.0000
  0
LINE
  8
21
 10
2.2420
 20
14.1548
 30
0.0000
 11
2.9593
 21
13.2751
 31
0.0000
  0
LINE
  8
21
 10
2.9593
 20
13.2751
 30
0.0000
 11
2.8311
 21
13.0422
 31
0.0000
  0
LINE
  8
21
 10
2.8311
 20
13.0422
 30
0.0000
 11
2.7294
 21
12.7966
 31
0.0000
  0
LINE
  8
21
 10
2.7294
 20
12.7966
 30
0.0000
 11
2.6554
 21
12.5413
 31
0.0000
  0
LINE
  8
21
 10
2.6554
 20
12.5413
 30
0.0000
 11
1.5261
 21
12.4265
 31
0.0000
  0
LINE
  8
21
 10
1.5261
 20
12.4265
 30
0.0000
 11
1.5261
 21
11.5735
 31
0.0000
  0
LINE
  8
21
 10
1.5261
 20
11.5735
 30
0.0000
 11
2.6554
 21
11.4587
 31
0.0000
  0
LINE
  8
21
 10
2.6554
 20
11.4587
 30
0.0000
 11
2.7294
 21
11.2034
 31
0.0000
  0
LINE
  8
21
 10
2.7294
 20
11.2034
 30
0.0000
 11
2.8311
 21
10.9578
 31
0.0000
  0
LINE
  8
21
 10
2.8311
 20
10.9578
 30
0.0000
 11
2.9593
 21
10.7249
 31
0.0000
  0
LINE
  8
21
 10
2.9593
 20
10.7249
 30
0.0000
 11
2.2420
 21
9.8452
 31
0.0000
  0
LINE
  8
21
 10
2.2420
 20
9.8452
 30
0.0000
 11
2.8452
 21
9.2420
 31
0.0000
  0
LINE
  8
21
 10
2.8452
 20
9.2420
 30
0.0000
 11
3.7249
 21
9.9593
 31
0.0000
  0
LINE
  8
21
 10
3.7249
 20
9.9593
 30
0.0000
 11
3.8982
 21
9.8608
 31
0.0000
  0
LINE
  8
21
 10
3.8982
 20
9.8608
 30
0.0000
 11
4.0791
 21
9.7769
 31
0.0000
  0
LINE
  8
21
 10
4.0791
 20
9.7769
 30
0.0000
 11
4.5814
 21
10.9895
 31
0.0000
  0
LINE
  8
21
 10
4.5814
 20
10.9895
 30
0.0000
 11
4.4180
 21
11.0739
 31
0.0000
  0
LINE
  8
21
 10
4.4180
 20
11.0739
 30
0.0000
 11
4.2711
 21
11.1844
 31
0.0000
  0
LINE
  8
21
 10
4.2711
 20
11.1844
 30
0.0000
 11
4.1448
 21
11.3180
 31
0.0000
  0
LINE
  8
21
 10
4.1448
 20
11.3180
 30
0.0000
 11
4.0427
 21
11.4709
 31
0.0000
  0
LINE
  8
21
 10
4.0427
 20
11.4709
 30
0.0000
 11
3.9676
 21
11.6387
 31
0.0000
  0
LINE
  8
21
 10
3.9676
 20
11.6387
 30
0.0000
 11
3.9217
 21
11.8168
 31
0.0000
  0
LINE
  8
21
 10
3.9217
 20
11.8168
 30
0.0000
 11
3.9062
 21
12.0000
 31
0.0000
  0
LINE
  8
21
 10
3.9062
 20
12.0000
 30
0.0000
 11
3.9254
 21
12.2042
 31
0.0000
  0
LINE
  8
21
 10
3.9254
 20
12.2042
 30
0.0000
 11
3.9825
 21
12.4013
 31
0.0000
  0
LINE
  8
21
 10
3.9825
 20
12.4013
 30
0.0000
 11
4.0753
 21
12.5842
 31
0.0000
  0
LINE
  8
21
 10
4.0753
 20
12.5842
 30
0.0000
 11
4.2006
 21
12.7466
 31
0.0000
  0
LINE
  8
21
 10
4.2006
 20
12.7466
 30
0.0000
 11
4.3540
 21
12.8827
 31
0.0000
  0
LINE
  8
21
 10
4.3540
 20
12.8827
 30
0.0000
 11
4.5302
 21
12.9878
 31
0.0000
  0
LINE
  8
21
 10
4.5302
 20
12.9878
 30
0.0000
 11
4.7229
 21
13.0581
 31
0.0000
  0
LINE
  8
21
 10
4.7229
 20
13.0581
 30
0.0000
 11
4.9253
 21
13.0912
 31
0.0000
  0
LINE
  8
21
 10
4.9253
 20
13.0912
 30
0.0000
 11
5.1304
 21
13.0860
 31
0.0000
  0
LINE
  8
21
 10
5.1304
 20
13.0860
 30
0.0000
 11
5.3308
 21
13.0425
 31
0.0000
  0
LINE
  8
21
 10
5.3308
 20
13.0425
 30
0.0000
 11
5.5197
 21
12.9624
 31
0.0000
  0
LINE
  8
21
 10
5.5197
 20
12.9624
 30
0.0000
 11
5.6902
 21
12.8485
 31
0.0000
  0
LINE
  8
21
 10
5.6902
 20
12.8485
 30
0.0000
 11
5.8365
 21
12.7047
 31
0.0000
  0
LINE
  8
21
 10
5.8365
 20
12.7047
 30
0.0000
 11
5.9534
 21
12.5361
 31
0.0000
  0
LINE
  8
21
 10
5.9534
 20
12.5361
 30
0.0000
 11
6.0367
 21
12.3487
 31
0.0000
  0
LINE
  8
21
 10
6.0367
 20
12.3487
 30
0.0000
 11
6.0836
 21
12.1490
 31
0.0000
  0
LINE
  8
21
 10
6.0836
 20
12.1490
 30
0.0000
 11
6.0923
 21
11.9440
 31
0.0000
  0
LINE
  8
21
 10
6.0923
 20
11.9440
 30
0.0000
 11
6.0627
 21
11.7411
 31
0.0000
  0
LINE
  8
21
 10
6.0627
 20
11.7411
 30
0.0000
 11
5.9956
 21
11.5472
 31
0.0000
  0
LINE
  8
21
 10
5.9956
 20
11.5472
 30
0.0000
 11
5.8936
 21
11.3693
 31
0.0000
  0
LINE
  8
21
 10
5.8936
 20
11.3693
 30
0.0000
 11
5.7601
 21
11.2135
 31
0.0000
  0
LINE
  8
21
 10
5.7601
 20
11.2135
 30
0.0000
 11
5.5999
 21
11.0854
 31
0.0000
  0
LINE
  8
21
 10
5.5999
 20
11.0854
 30
0.0000
 11
5.4186
 21
10.9895
 31
0.0000
  0
LINE
  8
21
 10
5.4186
 20
10.9895
 30
0.0000
 11
5.9209
 21
9.7769
 31
0.0000
  0
LINE
  8
21
 10
2.7872
 20
9.3000
 30
0.0000
 11
2.9163
 21
9.3000
 31
0.0000
  0
LINE
  8
21
 10
7.0837
 20
9.3000
 30
0.0000
 11
7.2128
 21
9.3000
 31
0.0000
  0
LINE
  8
21
 10
2.6372
 20
9.4500
 30
0.0000
 11
3.1003
 21
9.4500
 31
0.0000
  0
LINE
  8
21
 10
6.8997
 20
9.4500
 30
0.0000
 11
7.3628
 21
9.4500
 31
0.0000
  0
LINE
  8
21
 10
2.4872
 20
9.6000
 30
0.0000
 11
3.2843
 21
9.6000
 31
0.0000
  0
LINE
  8
21
 10
6.7157
 20
9.6000
 30
0.0000
 11
7.5128
 21
9.6000
 31
0.0000
  0
LINE
  8
21
 10
2.3372
 20
9.7500
 30
0.0000
 11
3.4682
 21
9.7500
 31
0.0000
  0
LINE
  8
21
 10
6.5318
 20
9.7500
 30
0.0000
 11
7.6628
 21
9.7500
 31
0.0000
  0
LINE
  8
21
 10
2.2867
 20
9.9000
 30
0.0000
 11
3.6522
 21
9.9000
 31
0.0000
  0
LINE
  8
21
 10
3.8292
 20
9.9000
 30
0.0000
 11
4.1301
 21
9.9000
 31
0.0000
  0
LINE
  8
21
 10
5.8699
 20
9.9000
 30
0.0000
 11
6.1708
 21
9.9000
 31
0.0000
  0
LINE
  8
21
 10
6.3478
 20
9.9000
 30
0.0000
 11
7.7133
 21
9.9000
 31
0.0000
  0
LINE
  8
21
 10
2.4090
 20
10.0500
 30
0.0000
 11
4.1922
 21
10.0500
 31
0.0000
  0
LINE
  8
21
 10
5.8078
 20
10.0500
 30
0.0000
 11
7.5910
 21
10.0500
 31
0.0000
  0
LINE
  8
21
 10
2.5313
 20
10.2000
 30
0.0000
 11
4.2544
 21
10.2000
 31
0.0000
  0
LINE
  8
21
 10
5.7456
 20
10.2000
 30
0.0000
 11
7.4687
 21
10.2000
 31
0.0000
  0
LINE
  8
21
 10
2.6536
 20
10.3500
 30
0.0000
 11
4.3165
 21
10.3500
 31
0.0000
  0
LINE
  8
21
 10
5.6835
 20
10.3500
 30
0.0000
 11
7.3464
 21
10.3500
 31
0.0000
  0
LINE
  8
21
 10
2.7759
 20
10.5000
 30
0.0000
 11
4.3786
 21
10.5000
 31
0.0000
  0
LINE
  8
21
 10
5.6214
 20
10.5000
 30
0.0000
 11
7.2241
 21
10.5000
 31
0.0000
  0
LINE
  8
21
 10
2.8982
 20
10.6500
 30
0.0000
 11
4.4408
 21
10.6500
 31
0.0000
  0
LINE
  8
21
 10
5.5592
 20
10.6500
 30
0.0000
 11
7.1018
 21
10.6500
 31
0.0000
  0
LINE
  8
21
 10
2.9180
 20
10.8000
 30
0.0000
 11
4.5029
 21
10.8000
 31
0.0000
  0
LINE
  8
21
 10
5.4971
 20
10.8000
 30
0.0000
 11
7.0820
 21
10.8000
 31
0.0000
  0
LINE
  8
21
 10
2.8354
 20
10.9500
 30
0.0000
 11
4.5650
 21
10.9500
 31
0.0000
  0
LINE
  8
21
 10
5.4350
 20
10.9500
 30
0.0000
 11
7.1646
 21
10.9500
 31
0.0000
  0
LINE
  8
21
 10
2.7722
 20
11.1000
 30
0.0000
 11
4.3833
 21
11.1000
 31
0.0000
  0
LINE
  8
21
 10
5.6181
 20
11.1000
 30
0.0000
 11
7.2278
 21
11.1000
 31
0.0000
  0
LINE
  8
21
 10
2.7159
 20
11.2500
 30
0.0000
 11
4.2092
 21
11.2500
 31
0.0000
  0
LINE
  8
21
 10
5.7914
 20
11.2500
 30
0.0000
 11
7.2841
 21
11.2500
 31
0.0000
  0
LINE
  8
21
 10
2.6724
 20
11.4000
 30
0.0000
 11
4.0901
 21
11.4000
 31
0.0000
  0
LINE
  8
21
 10
5.9112
 20
11.4000
 30
0.0000
 11
7.3276
 21
11.4000
 31
0.0000
  0
LINE
  8
21
 10
1.7573
 20
11.5500
 30
0.0000
 11
4.0073
 21
11.5500
 31
0.0000
  0
LINE
  8
21
 10
5.9966
 20
11.5500
 30
0.0000
 11
8.2427
 21
11.5500
 31
0.0000
  0
LINE
  8
21
 10
1.5261
 20
11.7000
 30
0.0000
 11
3.9518
 21
11.7000
 31
0.0000
  0
LINE
  8
21
 10
6.0485
 20
11.7000
 30
0.0000
 11
8.4739
 21
11.7000
 31
0.0000
  0
LINE
  8
21
 10
1.5261
 20
11.8500
 30
0.0000
 11
3.9189
 21
11.8500
 31
0.0000
  0
LINE
  8
21
 10
6.0786
 20
11.8500
 30
0.0000
 11
8.4739
 21
11.8500
 31
0.0000
  0
LINE
  8
21
 10
1.5261
 20
12.0000
 30
0.0000
 11
3.9062
 21
12.0000
 31
0.0000
  0
LINE
  8
21
 10
6.0899
 20
12.0000
 30
0.0000
 11
8.4739
 21
12.0000
 31
0.0000
  0
LINE
  8
21
 10
1.5261
 20
12.1500
 30
0.0000
 11
3.9203
 21
12.1500
 31
0.0000
  0
LINE
  8
21
 10
6.0833
 20
12.1500
 30
0.0000
 11
8.4739
 21
12.1500
 31
0.0000
  0
LINE
  8
21
 10
1.5261
 20
12.3000
 30
0.0000
 11
3.9532
 21
12.3000
 31
0.0000
  0
LINE
  8
21
 10
6.0481
 20
12.3000
 30
0.0000
 11
8.4739
 21
12.3000
 31
0.0000
  0
LINE
  8
21
 10
1.7573
 20
12.4500
 30
0.0000
 11
4.0072
 21
12.4500
 31
0.0000
  0
LINE
  8
21
 10
5.9916
 20
12.4500
 30
0.0000
 11
8.2427
 21
12.4500
 31
0.0000
  0
LINE
  8
21
 10
2.6724
 20
12.6000
 30
0.0000
 11
4.0875
 21
12.6000
 31
0.0000
  0
LINE
  8
21
 10
5.9091
 20
12.6000
 30
0.0000
 11
7.3276
 21
12.6000
 31
0.0000
  0
LINE
  8
21
 10
2.7159
 20
12.7500
 30
0.0000
 11
4.2045
 21
12.7500
 31
0.0000
  0
LINE
  8
21
 10
5.7904
 20
12.7500
 30
0.0000
 11
7.2841
 21
12.7500
 31
0.0000
  0
LINE
  8
21
 10
2.7722
 20
12.9000
 30
0.0000
 11
4.3831
 21
12.9000
 31
0.0000
  0
LINE
  8
21
 10
5.6131
 20
12.9000
 30
0.0000
 11
7.2278
 21
12.9000
 31
0.0000
  0
LINE
  8
21
 10
2.8354
 20
13.0500
 30
0.0000
 11
4.7007
 21
13.0500
 31
0.0000
  0
LINE
  8
21
 10
5.2964
 20
13.0500
 30
0.0000
 11
7.1646
 21
13.0500
 31
0.0000
  0
LINE
  8
21
 10
2.9180
 20
13.2000
 30
0.0000
 11
7.0820
 21
13.2000
 31
0.0000
  0
LINE
  8
21
 10
2.8982
 20
13.3500
 30
0.0000
 11
7.1018
 21
13.3500
 31
0.0000
  0
LINE
  8
21
 10
2.7759
 20
13.5000
 30
0.0000
 11
7.2241
 21
13.5000
 31
0.0000
  0
LINE
  8
21
 10
2.6536
 20
13.6500
 30
0.0000
 11
7.3464
 21
13.6500
 31
0.0000
  0
LINE
  8
21
 10
2.5313
 20
13.8000
 30
0.0000
 11
7.4687
 21
13.8000
 31
0.0000
  0
LINE
  8
21
 10
2.4090
 20
13.9500
 30
0.0000
 11
7.5910
 21
13.9500
 31
0.0000
  0
LINE
  8
21
 10
2.2867
 20
14.1000
 30
0.0000
 11
3.6522
 21
14.1000
 31
0.0000
  0
LINE
  8
21
 10
3.8326
 20
14.1000
 30
0.0000
 11
6.1674
 21
14.1000
 31
0.0000
  0
LINE
  8
21
 10
6.3478
 20
14.1000
 30
0.0000
 11
7.7133
 21
14.1000
 31
0.0000
  0
LINE
  8
21
 10
2.3372
 20
14.2500
 30
0.0000
 11
3.4682
 21
14.2500
 31
0.0000
  0
LINE
  8
21
 10
4.1536
 20
14.2500
 30
0.0000
 11
5.8464
 21
14.2500
 31
0.0000
  0
LINE
  8
21
 10
6.5318
 20
14.2500
 30
0.0000
 11
7.6628
 21
14.2500
 31
0.0000
  0
LINE
  8
21
 10
2.4872
 20
14.4000
 30
0.0000
 11
3.2843
 21
14.4000
 31
0.0000
  0
LINE
  8
21
 10
4.4643
 20
14.4000
 30
0.0000
 11
5.5357
 21
14.4000
 31
0.0000
  0
LINE
  8
21
 10
6.7157
 20
14.4000
 30
0.0000
 11
7.5128
 21
14.4000
 31
0.0000
  0
LINE
  8
21
 10
2.6372
 20
14.5500
 30
0.0000
 11
3.1003
 21
14.5500
 31
0.0000
  0
LINE
  8
21
 10
4.4796
 20
14.5500
 30
0.0000
 11
5.5204
 21
14.5500
 31
0.0000
  0
LINE
  8
21
 10
6.8997
 20
14.5500
 30
0.0000
 11
7.3628
 21
14.5500
 31
0.0000
  0
LINE
  8
21
 10
2.7872
 20
14.7000
 30
0.0000
 11
2.9163
 21
14.7000
 31
0.0000
  0
LINE
  8
21
 10
4.4948
 20
14.7000
 30
0.0000
 11
5.5052
 21
14.7000
 31
0.0000
  0
LINE
  8
21
 10
7.0837
 20
14.7000
 30
0.0000
 11
7.2128
 21
14.7000
 31
0.0000
  0
LINE
  8
21
 10
4.5101
 20
14.8500
 30
0.0000
 11
5.4899
 21
14.8500
 31
0.0000
  0
LINE
  8
21
 10
4.5253
 20
15.0000
 30
0.0000
 11
5.4747
 21
15.0000
 31
0.0000
  0
LINE
  8
21
 10
4.5406
 20
15.1500
 30
0.0000
 11
5.4594
 21
15.1500
 31
0.0000
  0
LINE
  8
21
 10
4.5558
 20
15.3000
 30
0.0000
 11
5.4442
 21
15.3000
 31
0.0000
  0
LINE
  8
21
 10
4.5711
 20
15.4500
 30
0.0000
 11
5.4289
 21
15.4500
 31
0.0000
  0
LINE
  8
1
 10
32.6000
 20
9.4000
 30
0.0000
 11
30.6000
 21
9.4000
 31
0.0000
  0
LINE
  8
1
 10
33.8000
 20
10.6000
 30
0.0000
 11
32.6000
 21
9.4000
 31
0.0000
  0
LINE
  8
1
 10
33.8000
 20
23.9000
 30
0.0000
 11
33.8000
 21
10.6000
 31
0.0000
  0
LINE
  8
1
 10
29.0000
 20
28.7000
 30
0.0000
 11
33.8000
 21
23.9000
 31
0.0000
  0
LINE
  8
1
 10
30.6000
 20
9.4000
 30
0.0000
 11
30.6000
 21
9.3500
 31
0.0000
  0
LINE
  8
1
 10
29.0000
 20
28.7000
 30
0.0000
 11
28.9300
 21
28.7800
 31
0.0000
  0
LINE
  8
1
 10
28.9000
 20
28.8000
 30
0.0000
 11
28.9000
 21
31.3000
 31
0.0000
  0
LINE
  8
1
 10
28.9000
 20
31.3000
 30
0.0000
 11
28.9300
 21
31.3200
 31
0.0000
  0
LINE
  8
1
 10
28.9000
 20
28.8000
 30
0.0000
 11
28.9300
 21
28.7800
 31
0.0000
  0
LINE
  8
16
 10
-0.5000
 20
35.5000
 30
0.0000
 11
35.5000
 21
35.5000
 31
0.0000
  0
LINE
  8
16
 10
35.5000
 20
35.5000
 30
0.0000
 11
35.5000
 21
-0.5000
 31
0.0000
  0
LINE
  8
16
 10
35.5000
 20
-0.5000
 30
0.0000
 11
-0.5000
 21
-0.5000
 31
0.0000
  0
LINE
  8
16
 10
-0.5000
 20
-0.5000
 30
0.0000
 11
-0.5000
 21
35.5000
 31
0.0000
  0
LINE
  8
1
 10
-0.5000
 20
35.5000
 30
0.0000
 11
35.5000
 21
35.5000
 31
0.0000
  0
LINE
  8
1
 10
35.5000
 20
35.5000
 30
0.0000
 11
35.5000
 21
-0.5000
 31
0.0000
  0
LINE
  8
1
 10
35.5000
 20
-0.5000
 30
0.0000
 11
-0.5000
 21
-0.5000
 31
0.0000
  0
LINE
  8
1
 10
-0.5000
 20
-0.5000
 30
0.0000
 11
-0.5000
 21
35.5000
 31
0.0000
  0
INSERT
  8
18
  2
ROUNDV
 10
19.0000
 20
14.0000
 30
0.0000
 41
1.0160
 42
1.0160
 43
1.0000
 50
0.0000
  0
INSERT
  8
18
  2
ROUNDV
 10
19.0000
 20
14.0000
 30
0.0000
 41
1.0160
 42
1.0160
 43
1.0000
 50
0.0000
  0
LINE
  8
16
 10
11.0000
 20
10.7000
 30
0.0000
 11
11.0000
 21
10.5000
 31
0.0000
  0
LINE
  8
16
 10
17.5000
 20
17.2000
 30
0.0000
 11
11.0000
 21
10.7000
 31
0.0000
  0
LINE
  8
16
 10
17.5000
 20
30.1000
 30
0.0000
 11
17.5000
 21
17.2000
 31
0.0000
  0
LINE
  8
16
 10
16.3000
 20
31.3000
 30
0.0000
 11
17.5000
 21
30.1000
 31
0.0000
  0
LINE
  8
16
 10
16.3000
 20
31.3000
 30
0.0000
 11
16.2300
 21
31.3200
 31
0.0000
  0
LINE
  8
16
 10
6.0000
 20
31.0000
 30
0.0000
 11
6.0000
 21
31.3000
 31
0.0000
  0
LINE
  8
16
 10
4.3000
 20
29.8000
 30
0.0000
 11
6.0000
 21
31.0000
 31
0.0000
  0
LINE
  8
16
 10
4.3000
 20
26.3000
 30
0.0000
 11
4.3000
 21
29.8000
 31
0.0000
  0
LINE
  8
16
 10
9.2000
 20
21.4000
 30
0.0000
 11
4.3000
 21
26.3000
 31
0.0000
  0
LINE
  8
16
 10
9.2000
 20
7.3000
 30
0.0000
 11
9.2000
 21
21.4000
 31
0.0000
  0
LINE
  8
16
 10
11.0000
 20
5.5000
 30
0.0000
 11
9.2000
 21
7.3000
 31
0.0000
  0
LINE
  8
16
 10
6.0000
 20
31.3000
 30
0.0000
 11
6.0700
 21
31.3200
 31
0.0000
  0
LINE
  8
1
 10
13.6000
 20
10.6000
 30
0.0000
 11
29.3000
 21
10.6000
 31
0.0000
  0
LINE
  8
1
 10
11.0000
 20
8.0000
 30
0.0000
 11
13.6000
 21
10.6000
 31
0.0000
  0
LINE
  8
1
 10
29.3000
 20
10.6000
 30
0.0000
 11
29.3300
 21
10.6200
 31
0.0000
  0
LINE
  8
1
 10
18.7000
 20
30.5000
 30
0.0000
 11
18.7000
 21
31.3000
 31
0.0000
  0
LINE
  8
1
 10
17.5000
 20
29.3000
 30
0.0000
 11
18.7000
 21
30.5000
 31
0.0000
  0
LINE
  8
1
 10
17.5000
 20
27.2000
 30
0.0000
 11
17.5000
 21
29.3000
 31
0.0000
  0
LINE
  8
1
 10
12.6000
 20
22.3000
 30
0.0000
 11
17.5000
 21
27.2000
 31
0.0000
  0
LINE
  8
1
 10
10.0000
 20
22.3000
 30
0.0000
 11
12.6000
 21
22.3000
 31
0.0000
  0
LINE
  8
1
 10
9.2000
 20
21.5000
 30
0.0000
 11
10.0000
 21
22.3000
 31
0.0000
  0
LINE
  8
1
 10
9.2000
 20
9.5000
 30
0.0000
 11
9.2000
 21
21.5000
 31
0.0000
  0
LINE
  8
1
 10
18.7000
 20
31.3000
 30
0.0000
 11
18.7700
 21
31.3200
 31
0.0000
  0
LINE
  8
1
 10
11.0000
 20
8.0000
 30
0.0000
 11
10.7000
 21
8.0000
 31
0.0000
  0
LINE
  8
1
 10
10.7000
 20
8.0000
 30
0.0000
 11
9.2000
 21
9.5000
 31
0.0000
  0
LINE
  8
16
 10
28.3000
 20
13.2000
 30
0.0000
 11
29.3000
 21
13.2000
 31
0.0000
  0
LINE
  8
16
 10
25.1000
 20
16.4000
 30
0.0000
 11
28.3000
 21
13.2000
 31
0.0000
  0
LINE
  8
16
 10
25.1000
 20
30.1000
 30
0.0000
 11
25.1000
 21
16.4000
 31
0.0000
  0
LINE
  8
16
 10
23.9000
 20
31.3000
 30
0.0000
 11
25.1000
 21
30.1000
 31
0.0000
  0
LINE
  8
16
 10
29.3000
 20
13.2000
 30
0.0000
 11
29.3300
 21
13.1600
 31
0.0000
  0
LINE
  8
16
 10
23.9000
 20
31.3000
 30
0.0000
 11
23.8500
 21
31.3200
 31
0.0000
  0
LINE
  8
16
 10
28.3000
 20
11.9000
 30
0.0000
 11
29.3000
 21
11.9000
 31
0.0000
  0
LINE
  8
16
 10
23.8000
 20
16.4000
 30
0.0000
 11
28.3000
 21
11.9000
 31
0.0000
  0
LINE
  8
16
 10
23.8000
 20
25.8000
 30
0.0000
 11
23.8000
 21
16.4000
 31
0.0000
  0
LINE
  8
1
 10
23.8000
 20
26.0000
 30
0.0000
 11
23.8000
 21
25.8000
 31
0.0000
  0
LINE
  8
1
 10
22.6000
 20
27.2000
 30
0.0000
 11
23.8000
 21
26.0000
 31
0.0000
  0
LINE
  8
1
 10
22.6000
 20
32.3000
 30
0.0000
 11
22.6000
 21
27.2000
 31
0.0000
  0
LINE
  8
1
 10
21.8000
 20
33.1000
 30
0.0000
 11
22.6000
 21
32.3000
 31
0.0000
  0
LINE
  8
1
 10
15.4000
 20
33.1000
 30
0.0000
 11
21.8000
 21
33.1000
 31
0.0000
  0
LINE
  8
1
 10
13.7000
 20
31.4000
 30
0.0000
 11
15.4000
 21
33.1000
 31
0.0000
  0
LINE
  8
16
 10
29.3000
 20
11.9000
 30
0.0000
 11
29.3300
 21
11.8900
 31
0.0000
  0
LINE
  8
1
 10
13.7000
 20
31.4000
 30
0.0000
 11
13.6900
 21
31.3200
 31
0.0000
  0
INSERT
  8
18
  2
ROUNDV
 10
23.8000
 20
25.8000
 30
0.0000
 41
1.0160
 42
1.0160
 43
1.0000
 50
0.0000
  0
INSERT
  8
18
  2
ROUNDV
 10
23.8000
 20
25.8000
 30
0.0000
 41
1.0160
 42
1.0160
 43
1.0000
 50
0.0000
  0
LINE
  8
16
 10
28.3000
 20
9.4000
 30
0.0000
 11
29.3000
 21
9.4000
 31
0.0000
  0
LINE
  8
16
 10
22.6000
 20
15.1000
 30
0.0000
 11
28.3000
 21
9.4000
 31
0.0000
  0
LINE
  8
16
 10
22.6000
 20
30.1000
 30
0.0000
 11
22.6000
 21
15.1000
 31
0.0000
  0
LINE
  8
16
 10
21.4000
 20
31.3000
 30
0.0000
 11
22.6000
 21
30.1000
 31
0.0000
  0
LINE
  8
16
 10
29.3000
 20
9.4000
 30
0.0000
 11
29.3300
 21
9.3500
 31
0.0000
  0
LINE
  8
16
 10
21.4000
 20
31.3000
 30
0.0000
 11
21.3100
 21
31.3200
 31
0.0000
  0
LINE
  8
16
 10
31.7000
 20
13.1000
 30
0.0000
 11
30.6000
 21
13.1000
 31
0.0000
  0
LINE
  8
16
 10
33.0000
 20
11.8000
 30
0.0000
 11
31.7000
 21
13.1000
 31
0.0000
  0
LINE
  8
16
 10
33.0000
 20
9.0000
 30
0.0000
 11
33.0000
 21
11.8000
 31
0.0000
  0
LINE
  8
16
 10
31.8000
 20
7.8000
 30
0.0000
 11
33.0000
 21
9.0000
 31
0.0000
  0
LINE
  8
16
 10
15.8000
 20
7.8000
 30
0.0000
 11
31.8000
 21
7.8000
 31
0.0000
  0
LINE
  8
16
 10
11.0000
 20
3.0000
 30
0.0000
 11
15.8000
 21
7.8000
 31
0.0000
  0
LINE
  8
16
 10
30.6000
 20
13.1000
 30
0.0000
 11
30.6000
 21
13.1600
 31
0.0000
  0
LINE
  8
1
 10
29.8000
 20
15.3000
 30
0.0000
 11
30.6000
 21
14.5000
 31
0.0000
  0
LINE
  8
1
 10
13.3000
 20
15.3000
 30
0.0000
 11
29.8000
 21
15.3000
 31
0.0000
  0
LINE
  8
1
 10
11.0000
 20
13.0000
 30
0.0000
 11
13.3000
 21
15.3000
 31
0.0000
  0
LINE
  8
1
 10
30.6000
 20
14.5000
 30
0.0000
 11
30.6000
 21
14.4300
 31
0.0000
  0
LINE
  8
16
 10
29.3000
 20
14.6000
 30
0.0000
 11
29.3000
 21
14.5000
 31
0.0000
  0
LINE
  8
16
 10
26.2000
 20
17.7000
 30
0.0000
 11
29.3000
 21
14.6000
 31
0.0000
  0
LINE
  8
16
 10
26.2000
 20
23.7000
 30
0.0000
 11
26.2000
 21
17.7000
 31
0.0000
  0
LINE
  8
16
 10
30.7000
 20
28.2000
 30
0.0000
 11
26.2000
 21
23.7000
 31
0.0000
  0
LINE
  8
16
 10
30.7000
 20
31.9000
 30
0.0000
 11
30.7000
 21
28.2000
 31
0.0000
  0
LINE
  8
16
 10
29.5000
 20
33.1000
 30
0.0000
 11
30.7000
 21
31.9000
 31
0.0000
  0
LINE
  8
16
 10
12.9000
 20
33.1000
 30
0.0000
 11
29.5000
 21
33.1000
 31
0.0000
  0
LINE
  8
16
 10
11.2000
 20
31.4000
 30
0.0000
 11
12.9000
 21
33.1000
 31
0.0000
  0
LINE
  8
16
 10
29.3000
 20
14.5000
 30
0.0000
 11
29.3300
 21
14.4300
 31
0.0000
  0
LINE
  8
16
 10
11.2000
 20
31.4000
 30
0.0000
 11
11.1500
 21
31.3200
 31
0.0000
  0
LINE
  8
1
 10
20.9000
 20
20.5000
 30
0.0000
 11
11.0000
 21
20.5000
 31
0.0000
  0
LINE
  8
1
 10
25.1000
 20
24.7000
 30
0.0000
 11
20.9000
 21
20.5000
 31
0.0000
  0
LINE
  8
1
 10
25.1000
 20
30.1000
 30
0.0000
 11
25.1000
 21
24.7000
 31
0.0000
  0
LINE
  8
1
 10
26.3000
 20
31.3000
 30
0.0000
 11
25.1000
 21
30.1000
 31
0.0000
  0
LINE
  8
1
 10
26.3000
 20
31.3000
 30
0.0000
 11
26.3900
 21
31.3200
 31
0.0000
  0
ENDSEC
  0
EOF
